<svg xmlns="http://www.w3.org/2000/svg" xmlns:xlink="http://www.w3.org/1999/xlink" width="563.798" height="570.363" viewBox="0 0 563.798 570.363"><defs><clipPath id="a"><rect width="563.798" height="570.363" fill="none"></rect></clipPath><clipPath id="c"><rect width="82.161" height="45.259" fill="none"></rect></clipPath><clipPath id="d"><rect width="13.307" height="13.307" fill="none"></rect></clipPath><clipPath id="e"><rect width="21.261" height="28.577" fill="none"></rect></clipPath><clipPath id="f"><rect width="214.162" height="357.231" fill="none"></rect></clipPath></defs><g clip-path="url(#a)"><g clip-path="url(#a)"><path d="M198.16,209.889a13.049,13.049,0,0,1-.332-2.932,24.122,24.122,0,0,0-.393-3.521,34.533,34.533,0,0,0-.925-4.731,44.369,44.369,0,0,0-4.914-12.171A45.575,45.575,0,0,0,180.279,173.5a45.1,45.1,0,0,0-42.507-7.307,42.293,42.293,0,0,0-11.5,5.866,41.109,41.109,0,0,0-9.7,9.316,44.737,44.737,0,0,0-1.292,53.031,41.062,41.062,0,0,0,9.243,9.779,42.227,42.227,0,0,0,11.2,6.418,45.44,45.44,0,0,0,54.75-17.707,44.334,44.334,0,0,0,5.5-11.918,34.443,34.443,0,0,0,1.154-4.679,24.152,24.152,0,0,0,.564-3.5,12.984,12.984,0,0,1,.474-2.912,12.9,12.9,0,0,1,.035,2.957,20.7,20.7,0,0,1-.329,3.576,32.073,32.073,0,0,1-.946,4.819,43.406,43.406,0,0,1-5.249,12.408A46.743,46.743,0,0,1,159.633,255.3a47.174,47.174,0,0,1-24.761-2.523,44.367,44.367,0,0,1-11.84-6.683,43.334,43.334,0,0,1-9.79-10.268,47.007,47.007,0,0,1,1.363-55.972,43.285,43.285,0,0,1,10.276-9.777,44.331,44.331,0,0,1,12.148-6.1,47.166,47.166,0,0,1,24.852-1.319,46.746,46.746,0,0,1,30.951,23.179,43.4,43.4,0,0,1,4.64,12.65,31.974,31.974,0,0,1,.712,4.86,20.593,20.593,0,0,1,.154,3.589,12.836,12.836,0,0,1-.178,2.952" transform="translate(25.575 39.482)" fill="#ebebeb"></path><path d="M186.6,177.6c.1.143-.73.865-2.336,2.059l-2.968,2.13c-.589.4-1.2.859-1.889,1.288l-2.271,1.187a52.058,52.058,0,0,1-27.113,6.828l-4.1-.183-3.938-.616c-.643-.109-1.287-.2-1.914-.322l-1.839-.489c-1.208-.336-2.407-.62-3.545-.986a59.344,59.344,0,0,1-11.5-5.3c-6.181-3.737-9.188-7.136-8.955-7.355.25-.285,3.609,2.561,9.834,5.792a69.372,69.372,0,0,0,11.323,4.634c1.1.32,2.257.562,3.421.861l1.767.439,1.834.276,3.763.554q1.932.078,3.912.158a56.139,56.139,0,0,0,26.253-5.894l2.3-1c.7-.366,1.335-.758,1.946-1.095l3.148-1.735c1.75-.927,2.774-1.376,2.876-1.234" transform="translate(27.906 42.958)" fill="#ebebeb"></path><path d="M113.1,224.967c-.1-.143.73-.865,2.336-2.061.881-.631,1.866-1.339,2.968-2.129.589-.4,1.2-.859,1.889-1.288l2.271-1.187a52.059,52.059,0,0,1,27.113-6.826l4.1.182,3.94.616c.643.109,1.287.2,1.914.322l1.839.489c1.208.336,2.405.62,3.545.985a59.378,59.378,0,0,1,11.5,5.3c6.181,3.737,9.188,7.136,8.954,7.354-.249.286-3.607-2.56-9.833-5.791a69.416,69.416,0,0,0-11.323-4.634c-1.1-.32-2.257-.562-3.421-.861L159.13,215l-1.834-.276q-1.852-.274-3.764-.554l-3.911-.158a56.123,56.123,0,0,0-26.253,5.9l-2.3,1c-.7.366-1.334.758-1.946,1.1-1.168.645-2.212,1.221-3.147,1.735-1.75.927-2.774,1.376-2.876,1.234" transform="translate(27.631 51.663)" fill="#ebebeb"></path><path d="M197.889,201.82c-.017.7-20.674.766-46.135.148s-46.094-1.687-46.076-2.388,20.67-.765,46.138-.147,46.09,1.687,46.072,2.387" transform="translate(25.82 48.623)" fill="#ebebeb"></path><path d="M141.133,254.626c-.7-.017-.766-20.668-.148-46.118s1.686-46.079,2.387-46.062.766,20.663.148,46.123-1.687,46.075-2.387,46.058" transform="translate(34.343 39.69)" fill="#ebebeb"></path><path d="M145.527,254.562c-.174.268-5.254-3.177-11.118-10.975a62.035,62.035,0,0,1-8.241-14.966,55.622,55.622,0,0,1-3.569-20.662,52.911,52.911,0,0,1,4.655-20.454,64.085,64.085,0,0,1,9.006-14.5c6.21-7.5,11.332-10.831,11.5-10.564.249.289-4.39,4.063-10.091,11.669a69.088,69.088,0,0,0-8.275,14.327,53.132,53.132,0,0,0-4.263,19.574,56.147,56.147,0,0,0,3.227,19.811,66.529,66.529,0,0,0,7.511,14.73c5.337,7.86,9.911,11.734,9.655,12.013" transform="translate(29.951 39.684)" fill="#ebebeb"></path><path d="M144.092,162.458c.174-.268,5.255,3.177,11.118,10.975a62.035,62.035,0,0,1,8.241,14.966,55.622,55.622,0,0,1,3.569,20.662,52.911,52.911,0,0,1-4.655,20.454,64.087,64.087,0,0,1-9.006,14.5c-6.21,7.5-11.332,10.831-11.5,10.564-.249-.289,4.39-4.064,10.091-11.669a69.089,69.089,0,0,0,8.275-14.327,53.163,53.163,0,0,0,4.264-19.574,56.174,56.174,0,0,0-3.228-19.811,66.529,66.529,0,0,0-7.511-14.73c-5.337-7.86-9.911-11.734-9.655-12.013" transform="translate(34.657 39.689)" fill="#ebebeb"></path><rect width="50.8" height="75.367" transform="translate(13.225 555.347) rotate(-79.009)" fill="#ebebeb"></rect><path d="M92.493,421.116a5.241,5.241,0,0,1-.818.53l-2.41,1.4-8.936,5.061L50.659,444.622l-.244.136-.183-.213-.439-.516c-8.661-10.237-16.5-19.5-22.23-26.273l-6.677-8.012-1.788-2.2a5.411,5.411,0,0,1-.589-.8,5.332,5.332,0,0,1,.693.708q.713.8,1.886,2.118l6.843,7.87,22.383,26.142.439.516-.426-.077c11.618-6.375,22.107-12.13,29.771-16.333l9.039-4.872,2.472-1.293a5.371,5.371,0,0,1,.883-.411" transform="translate(4.522 99.379)" fill="#e0e0e0"></path><path d="M10.724,451.766c-.118-.147,6.773-5.9,15.39-12.853s15.7-12.469,15.822-12.321-6.772,5.9-15.391,12.854-15.7,12.467-15.82,12.32" transform="translate(2.62 104.227)" fill="#e0e0e0"></path><path d="M55.669,429.928c.168-.086,4.348,7.767,9.334,17.539s8.893,17.766,8.725,17.852-4.346-7.766-9.335-17.541-8.892-17.764-8.724-17.85" transform="translate(13.6 105.043)" fill="#e0e0e0"></path><path d="M458.343,287.145a23.02,23.02,0,1,0-42.862,11.629h-.012l.065.087c.883,1.487,1.988,2.551,3.106,4.114l13.367,17.706a4.157,4.157,0,0,0,6.635,0l13.144-17.413a49.565,49.565,0,0,0,3.342-4.43l.048-.063h-.01a22.874,22.874,0,0,0,3.178-11.629m-23.02,10.023a10.131,10.131,0,1,1,10.131-10.131,10.132,10.132,0,0,1-10.131,10.131" transform="translate(100.736 64.533)" fill="#f5f5f5"></path><path d="M472.068,55.192a48.326,48.326,0,0,1-49.9,46.691,48.818,48.818,0,0,1-8.461-1.013,48.282,48.282,0,1,1,58.364-45.678" transform="translate(91.704 1.313)" fill="#f5f5f5"></path><path d="M459.359,53A36.868,36.868,0,1,1,423.69,15.057,36.826,36.826,0,0,1,459.359,53" transform="translate(94.222 3.674)" fill="#f5f5f5"></path><path d="M458.376,52.626a3.481,3.481,0,0,1-.051-.6c-.017-.432-.04-1.01-.071-1.75q-.019-.582-.042-1.288c-.037-.472-.123-.986-.19-1.542a26.755,26.755,0,0,0-.659-3.815,35.042,35.042,0,0,0-3.79-9.86,36.6,36.6,0,0,0-43.363-16.929,37.925,37.925,0,0,0-4.822,1.934c-.784.389-1.537.854-2.314,1.28a18.265,18.265,0,0,0-2.249,1.441,40.961,40.961,0,0,0-4.251,3.375,41.061,41.061,0,0,0-3.711,4.1,35.184,35.184,0,0,0-5.541,9.86,38.825,38.825,0,0,0-2.256,11.429,38.814,38.814,0,0,0,1.514,11.554,35.237,35.237,0,0,0,4.9,10.2,41.053,41.053,0,0,0,3.441,4.333,41,41,0,0,0,4.025,3.642A37.835,37.835,0,0,0,403.323,83a38.043,38.043,0,0,0,4.687,2.24,36.767,36.767,0,0,0,19.1,2.214,36.78,36.78,0,0,0,25.26-16.327,35.05,35.05,0,0,0,4.415-9.6,26.719,26.719,0,0,0,.9-3.763c.1-.552.223-1.059.29-1.527q.069-.7.126-1.282c.077-.735.138-1.313.183-1.742a3.361,3.361,0,0,1,.088-.592,3.325,3.325,0,0,1-.01.6c-.026.432-.061,1.012-.107,1.752q-.039.584-.087,1.292c-.057.473-.164.984-.255,1.54a26.139,26.139,0,0,1-.839,3.808,34.786,34.786,0,0,1-4.341,9.748A37.107,37.107,0,0,1,427.211,88.09,37.326,37.326,0,0,1,407.747,85.9a34.347,34.347,0,0,1-9.262-5.331,41.887,41.887,0,0,1-4.114-3.708,42.045,42.045,0,0,1-3.519-4.417,35.888,35.888,0,0,1-5.01-10.409,39.5,39.5,0,0,1-1.55-11.8A39.491,39.491,0,0,1,386.6,38.572a35.884,35.884,0,0,1,5.668-10.063,41.585,41.585,0,0,1,3.794-4.18,41.656,41.656,0,0,1,4.343-3.437,19,19,0,0,1,2.3-1.465c.794-.434,1.563-.9,2.364-1.3a38.725,38.725,0,0,1,4.921-1.959,37.306,37.306,0,0,1,19.562-.933,37.1,37.1,0,0,1,24.4,18.329,34.777,34.777,0,0,1,3.707,10.007,25.925,25.925,0,0,1,.592,3.854c.056.561.131,1.079.155,1.554,0,.473,0,.9.006,1.3,0,.742,0,1.323-.006,1.756a3.4,3.4,0,0,1-.029.6" transform="translate(93.891 3.509)" fill="#e0e0e0"></path><path d="M420.911,71.272l-.113,6.422-5.733-.1.111-6.248c-5.669-.444-11.084-2.317-14.193-4.838l3.275-6.938a23.181,23.181,0,0,0,11.051,4.267l.168-9.575c-6.336-1.659-13.408-3.906-13.262-12.1.107-6.077,4.614-11.215,13.689-12.086l.113-6.365,5.733.1-.111,6.25a25.932,25.932,0,0,1,11.576,3.7l-2.99,7a23.481,23.481,0,0,0-8.719-3.138l-.172,9.748c6.336,1.6,13.293,3.847,13.151,11.929-.106,5.963-4.554,11.046-13.574,11.975m-5.285-25.44.142-8.14c-3.049.633-4.282,2.276-4.317,4.167-.035,2.006,1.666,3.127,4.175,3.973m9.617,13.991c.035-2.008-1.608-3.125-4.059-4.03l-.139,7.911c2.878-.579,4.166-2.047,4.2-3.881" transform="translate(97.971 5.791)" fill="#e0e0e0"></path><path d="M361.548,50.424a25.454,25.454,0,1,1-6.24-35.411,25.426,25.426,0,0,1,6.24,35.411" transform="translate(77.031 2.536)" fill="#f5f5f5"></path><path d="M355.741,46.252a19.4,19.4,0,1,1-4.756-26.986,19.376,19.376,0,0,1,4.756,26.986" transform="translate(78.302 3.845)" fill="#f5f5f5"></path><path d="M355.437,45.792a1.711,1.711,0,0,1,.151-.277c.116-.2.273-.457.473-.79l.352-.579c.119-.219.23-.47.361-.734a14.083,14.083,0,0,0,.81-1.869,18.443,18.443,0,0,0,1.175-5.433,19.258,19.258,0,0,0-14.2-19.954,19.9,19.9,0,0,0-2.679-.54c-.458-.055-.923-.067-1.387-.1a9.813,9.813,0,0,0-1.406-.015,17.572,17.572,0,0,0-5.659,1,18.5,18.5,0,0,0-5.282,2.742,20.376,20.376,0,0,0-4.288,4.379,20.444,20.444,0,0,0-2.665,5.521,18.525,18.525,0,0,0-.785,5.9,21.716,21.716,0,0,0,.264,2.9,21.749,21.749,0,0,0,.722,2.764,20.1,20.1,0,0,0,1.06,2.587,19.884,19.884,0,0,0,1.417,2.337A19.293,19.293,0,0,0,347.459,52.2a18.417,18.417,0,0,0,4.71-2.95,14.112,14.112,0,0,0,1.483-1.4c.2-.214.4-.4.567-.589l.424-.528c.246-.3.439-.538.582-.714a1.8,1.8,0,0,1,.21-.235,1.683,1.683,0,0,1-.177.26c-.136.182-.319.428-.552.74-.123.163-.26.345-.411.543s-.356.386-.557.6a13.482,13.482,0,0,1-1.466,1.433,18.29,18.29,0,0,1-4.721,3.039,19.53,19.53,0,0,1-16.058,0,19.635,19.635,0,0,1-7.935-6.575,18,18,0,0,1-2.54-5.016A21.945,21.945,0,0,1,320.28,38,21.776,21.776,0,0,1,320,35.045a18.88,18.88,0,0,1,.8-6.025,19.316,19.316,0,0,1,7.1-10.11,18.874,18.874,0,0,1,5.4-2.795,17.934,17.934,0,0,1,5.777-1.005,10.012,10.012,0,0,1,1.433.017c.474.039.948.054,1.415.111a20.224,20.224,0,0,1,2.731.556,19.639,19.639,0,0,1,8.878,5.23,19.522,19.522,0,0,1,5.454,15.1,18.3,18.3,0,0,1-1.254,5.474,13.769,13.769,0,0,1-.85,1.866c-.138.264-.255.513-.381.729l-.371.571-.509.771a1.724,1.724,0,0,1-.184.254" transform="translate(78.185 3.687)" fill="#e0e0e0"></path><path d="M333.272,43.818l-1.9,2.794-2.492-1.7,1.85-2.718a14.289,14.289,0,0,1-4.852-6.223l3.442-2.109a12.191,12.191,0,0,0,3.633,5.064l2.835-4.166c-2.311-2.556-4.775-5.585-2.346-9.151,1.8-2.643,5.265-3.606,9.509-1.372l1.885-2.769,2.494,1.7-1.85,2.719a13.641,13.641,0,0,1,4.027,4.966l-3.335,2.22a12.369,12.369,0,0,0-2.933-3.895l-2.886,4.239c2.327,2.532,4.741,5.527,2.347,9.043-1.766,2.594-5.189,3.549-9.427,1.358M338.283,31.1l2.41-3.541c-1.526-.6-2.541-.234-3.1.59-.594.872-.168,1.855.692,2.952m.2,8.931c.595-.874.193-1.839-.623-2.944l-2.343,3.442c1.433.575,2.423.3,2.966-.5" transform="translate(79.62 5.246)" fill="#e0e0e0"></path><path d="M119.167,305.207s-8.417,3.408,1.29,21.276S136.8,353.147,136.8,353.147s1.748,4.161-1.773,4.906-11.345-.3-12.809,4.074c-1.519,4.533,1.853,8.684,8.562,12.23s21.126,11.85,22.426,12.606c1.277.742,2.588,2.665.27,3.558s-19.795,3.173-18.214,11.4,21.9,15.031,24.1,15.819,2.752,1.7,2.606,2.9-6.093,1.417-11.038,2.271-10.527,2.709-9.218,7.379,13.486,14.24,42.506,16.328l13.511.086,7.05-11.595c13.577-25.734,11.9-41.129,8.624-44.711s-7.8.177-11.139,3.921S195.6,403,194.5,402.491s-1.585-1.457-1.085-3.747,5.469-23.128-.678-28.82-17.33,7.934-19.312,9.428-2.922-.635-2.876-2.112c.046-1.5.621-18.131,1.161-25.7s-1.2-12.625-5.851-13.734c-4.483-1.069-7.738,6.121-10.232,8.715s-5.1-1.089-5.1-1.089-3.959-10.282-13.99-27.969S119,305.287,119,305.287" transform="translate(28.288 74.391)" fill="#ebebeb"></path><path d="M196.141,446.579c-7.315-13.019-19.928-36.377-30.861-56.374s-20.841-38.081-28.089-51.136l-8.6-15.452-2.336-4.2c-.256-.472-.455-.836-.6-1.1s-.192-.381-.192-.381.083.118.229.36l.635,1.079c.559.967,1.366,2.368,2.4,4.163,2.084,3.62,5.062,8.877,8.717,15.389,7.315,13.018,17.27,31.087,28.2,51.078s23.5,43.376,30.751,56.431" transform="translate(30.655 77.68)" fill="#e0e0e0"></path><path d="M129.7,352.332a4.37,4.37,0,0,1,.948.238c.6.177,1.467.458,2.531.815,2.128.718,5.04,1.786,8.232,3.021l8.162,3.193,2.477.951a4.391,4.391,0,0,1,.9.386,4.4,4.4,0,0,1-.949-.23c-.6-.179-1.467-.459-2.528-.829-2.12-.739-5.017-1.844-8.21-3.08-3.151-1.206-6-2.3-8.18-3.133l-2.485-.939a4.407,4.407,0,0,1-.895-.392" transform="translate(31.689 86.083)" fill="#e0e0e0"></path><path d="M149.108,363.858c-.109-.037,1.825-6.138,4.323-13.627s4.61-13.531,4.721-13.493-1.825,6.136-4.323,13.627-4.611,13.53-4.721,13.493" transform="translate(36.43 82.274)" fill="#e0e0e0"></path><path d="M161.484,388.012a4.519,4.519,0,0,1,.526-.847c.413-.6.931-1.344,1.543-2.23,1.3-1.884,3.083-4.493,4.945-7.445s3.469-5.675,4.611-7.658l1.355-2.349a4.588,4.588,0,0,1,.539-.839,4.49,4.49,0,0,1-.394.916c-.28.577-.7,1.4-1.241,2.415-1.076,2.023-2.64,4.782-4.516,7.738s-3.694,5.551-5.058,7.394c-.686.918-1.249,1.656-1.652,2.154a4.5,4.5,0,0,1-.658.75" transform="translate(39.454 89.581)" fill="#e0e0e0"></path><path d="M142.7,382.076a3.962,3.962,0,0,1,.922-.009l2.5.134c2.113.131,5.028.34,8.247.6s6.132.515,8.237.722l2.494.266a3.963,3.963,0,0,1,.91.154,3.978,3.978,0,0,1-.923.009l-2.5-.134c-2.112-.131-5.028-.34-8.247-.6s-6.131-.514-8.237-.722l-2.492-.266a3.932,3.932,0,0,1-.91-.154" transform="translate(34.864 93.345)" fill="#e0e0e0"></path><path d="M150.787,405.784a6.356,6.356,0,0,1,1.181,0l3.209.159c2.708.152,6.447.392,10.576.683s7.865.577,10.568.805l3.2.292a6.427,6.427,0,0,1,1.17.164,6.351,6.351,0,0,1-1.181,0l-3.209-.159c-2.708-.152-6.447-.392-10.577-.683s-7.864-.577-10.567-.805l-3.2-.292a6.383,6.383,0,0,1-1.17-.164" transform="translate(36.841 99.139)" fill="#e0e0e0"></path><path d="M174.255,412.684a7.308,7.308,0,0,1,.64-1.09l1.854-2.9c1.563-2.448,3.708-5.837,5.97-9.645s4.231-7.305,5.634-9.848l1.664-3.011a7.283,7.283,0,0,1,.653-1.083,7.414,7.414,0,0,1-.508,1.158c-.352.733-.877,1.786-1.548,3.075-1.338,2.582-3.263,6.11-5.536,9.922s-4.455,7.185-6.082,9.594c-.816,1.2-1.487,2.169-1.966,2.826a7.292,7.292,0,0,1-.775,1" transform="translate(42.575 94.092)" fill="#e0e0e0"></path><path d="M392.943,205.978s-9.853-5.259-19.068,17.992-12.294,36.448-12.294,36.448-2.551,4.93-6.03,2.193-8.664-10.944-13.945-8.881c-5.476,2.14-6.738,8.6-4.794,17.725s5.466,29.288,5.777,31.111c.306,1.792-.477,4.546-3.146,3.06s-18.6-16.185-25.125-8.206,3.07,32.522,4.066,35.224.566,3.938-.686,4.75-6.143-4.636-10.846-8.632-10.858-7.8-14.235-2.886-2.812,23.96,18.1,53L321.283,391.7l16.5-2.484c35-7.47,48.209-21.195,49.01-27.106s-6.315-7.226-12.483-7.426-13.449.55-13.832-.891.127-2.647,2.682-3.978,26.148-13.07,26.675-23.362-21.151-10.106-24.125-10.8-1.7-3.258-.275-4.379c1.456-1.142,17.607-13.707,25.179-19.165s10.975-11.087,8.356-16.352c-2.526-5.076-11.881-2.48-16.3-2.789s-2.994-5.675-2.994-5.675,6.585-11.843,15.376-35.258-2.324-26.151-2.324-26.151" transform="translate(71.115 50.201)" fill="#ebebeb"></path><path d="M313.449,390.743c6.524-17.17,18.633-47.492,28.893-73.578s19.522-49.7,26.133-66.833c3.291-8.557,5.957-15.488,7.808-20.3l2.127-5.519.566-1.431c.129-.321.209-.482.209-.482s-.046.173-.161.5c-.123.346-.295.827-.518,1.448-.473,1.29-1.157,3.158-2.036,5.553-1.773,4.821-4.39,11.776-7.655,20.361-6.524,17.169-15.736,40.813-25.994,66.89S320.4,373.74,313.79,390.874" transform="translate(76.584 54.387)" fill="#e0e0e0"></path><path d="M337.141,253.715a5.361,5.361,0,0,1,.523,1.083c.309.709.724,1.746,1.227,3.032,1,2.574,2.287,6.166,3.637,10.154,1.318,3.937,2.509,7.5,3.419,10.222.419,1.224.771,2.258,1.055,3.09a5.317,5.317,0,0,1,.343,1.151,5.373,5.373,0,0,1-.53-1.079c-.307-.71-.723-1.747-1.212-3.04-.973-2.584-2.215-6.191-3.565-10.179-1.344-3.926-2.561-7.477-3.492-10.194-.424-1.223-.783-2.256-1.071-3.086a5.328,5.328,0,0,1-.335-1.155" transform="translate(82.371 61.989)" fill="#e0e0e0"></path><path d="M346.585,279.449c-.052-.133,7.234-3.116,16.272-6.661s16.41-6.315,16.462-6.182-7.233,3.115-16.273,6.662-16.409,6.312-16.461,6.181" transform="translate(84.68 65.138)" fill="#e0e0e0"></path><path d="M332.473,309.347a5.624,5.624,0,0,1,1.216-.172c.89-.08,2-.182,3.321-.3,2.8-.258,6.673-.631,10.928-1.2s8.092-1.2,10.864-1.685l3.286-.572a5.616,5.616,0,0,1,1.217-.152,5.575,5.575,0,0,1-1.177.35c-.765.19-1.876.447-3.258.733-2.759.579-6.6,1.278-10.866,1.838s-8.153.887-10.967,1.053c-1.409.077-2.548.127-3.337.138a5.736,5.736,0,0,1-1.227-.03" transform="translate(81.232 74.582)" fill="#e0e0e0"></path><path d="M319.31,289.43a4.857,4.857,0,0,1,.735.865q.752,1.006,1.848,2.469c1.542,2.1,3.642,5.016,5.935,8.257s4.349,6.194,5.815,8.346l1.713,2.563a4.844,4.844,0,0,1,.571.981,4.794,4.794,0,0,1-.735-.865l-1.847-2.467c-1.542-2.1-3.643-5.017-5.938-8.26s-4.348-6.193-5.813-8.344l-1.713-2.563a4.8,4.8,0,0,1-.571-.981" transform="translate(78.015 70.715)" fill="#e0e0e0"></path><path d="M303.3,315.76a7.78,7.78,0,0,1,.93,1.116l2.379,3.154c1.991,2.678,4.714,6.4,7.692,10.523s5.657,7.882,7.572,10.613l2.246,3.25a7.794,7.794,0,0,1,.767,1.233,7.812,7.812,0,0,1-.93-1.115l-2.379-3.154c-1.991-2.678-4.712-6.4-7.694-10.525s-5.654-7.88-7.569-10.612c-.907-1.312-1.662-2.4-2.247-3.251a7.788,7.788,0,0,1-.767-1.233" transform="translate(74.105 77.148)" fill="#e0e0e0"></path><path d="M320.4,340.317a9.2,9.2,0,0,1,1.534-.255l4.2-.534c3.543-.455,8.434-1.1,13.812-1.967s10.232-1.764,13.739-2.444l4.155-.8a8.922,8.922,0,0,1,1.537-.236,9.041,9.041,0,0,1-1.494.433c-.969.246-2.377.58-4.124.963-3.49.771-8.339,1.736-13.73,2.6s-10.3,1.46-13.853,1.822c-1.779.175-3.22.3-4.218.371a8.792,8.792,0,0,1-1.554.055" transform="translate(78.282 81.622)" fill="#e0e0e0"></path><path d="M395.515,259.067a29.9,29.9,0,0,0,16.192,4.746c19.613,0,30.694-16.564,30.027-31.423a21.425,21.425,0,0,0,5.27-5.469,21.093,21.093,0,0,1-6.066,1.662,10.578,10.578,0,0,0,4.644-5.843,21.179,21.179,0,0,1-6.707,2.565,10.571,10.571,0,0,0-18,9.635A29.979,29.979,0,0,1,399.1,223.9a10.575,10.575,0,0,0,3.269,14.1,10.523,10.523,0,0,1-4.787-1.321,10.579,10.579,0,0,0,8.473,10.493,10.582,10.582,0,0,1-4.768.179,10.568,10.568,0,0,0,9.866,7.337,21.229,21.229,0,0,1-15.639,4.374" transform="translate(96.635 54.233)" fill="#455a64"></path><rect width="90.869" height="72.647" transform="matrix(0.972, -0.233, 0.233, 0.972, 32.606, 446.501)" fill="#ebebeb"></rect><path d="M114.63,341.819s-.147.045-.426.116l-1.237.31c-1.1.271-2.706.666-4.794,1.177L90.1,347.817l-63.782,15.4.174-.284c5.044,21.027,10.828,45.129,16.946,70.635l0,.008-.317-.2,88.38-21.122-.162.264c-5.049-21.284-9.235-38.928-12.162-51.266-1.455-6.173-2.594-11.017-3.376-14.333-.383-1.649-.678-2.914-.881-3.784s-.29-1.316-.29-1.316.117.418.326,1.259l.92,3.732c.8,3.3,1.977,8.118,3.474,14.26,2.988,12.359,7.261,30.029,12.415,51.347l.052.213-.214.051-88.36,21.21-.256.062-.061-.258v-.006c-6.1-25.511-11.865-49.619-16.893-70.649l-.056-.229.23-.055,63.985-15.2,18.054-4.259,4.763-1.112,1.217-.277c.273-.061.406-.083.406-.083" transform="translate(6.346 83.515)" fill="#263238"></path><rect width="84.486" height="63.501" transform="translate(36.718 450.219) rotate(-13.47)" fill="#ecb82f"></rect><g transform="translate(51.509 466.714)" opacity="0.3"><g clip-path="url(#c)"><path d="M41.4,420.332l19.5-45.259,23.529,19.757,8.982-15.726,30.149,21.548Z" transform="translate(-41.395 -375.073)"></path></g></g><g transform="translate(82.085 450.842)" opacity="0.3"><g clip-path="url(#d)"><path d="M79.09,367.422a6.652,6.652,0,1,1-8.018-4.919,6.651,6.651,0,0,1,8.018,4.919" transform="translate(-65.967 -362.318)"></path></g></g><path d="M444.351,446.95h-117.6a5.666,5.666,0,0,1-5.665-5.667V358.208a6.69,6.69,0,0,1,6.689-6.689H443.328a6.69,6.69,0,0,1,6.689,6.689v83.075a5.667,5.667,0,0,1-5.667,5.667" transform="translate(78.449 85.885)" fill="#fff"></path><path d="M450.017,372.435H321.084V358.208a6.69,6.69,0,0,1,6.689-6.689H443.328a6.69,6.69,0,0,1,6.689,6.689Z" transform="translate(78.449 85.885)" fill="#e0e0e0"></path><path d="M336.368,361.553a3.816,3.816,0,1,1-3.816-3.816,3.816,3.816,0,0,1,3.816,3.816" transform="translate(80.319 87.405)" fill="#fff"></path><path d="M345.783,361.553a3.816,3.816,0,1,1-3.816-3.816,3.816,3.816,0,0,1,3.816,3.816" transform="translate(82.619 87.405)" fill="#fff"></path><path d="M355.2,361.553a3.816,3.816,0,1,1-3.816-3.816,3.816,3.816,0,0,1,3.816,3.816" transform="translate(84.919 87.405)" fill="#fff"></path><path d="M444.415,447.014c0-.027.387,0,1.117-.144a5.767,5.767,0,0,0,2.844-1.563,6.043,6.043,0,0,0,1.608-4.91c-.009-2.137-.019-4.6-.03-7.366-.024-11.1-.06-27.136-.1-46.946q-.011-7.434-.021-15.557-.006-4.056-.01-8.275c-.007-1.4.01-2.835-.019-4.244a6.417,6.417,0,0,0-1.455-3.818,6.487,6.487,0,0,0-3.539-2.173,9.093,9.093,0,0,0-2.158-.161H440.4l-9.172.009-19.148.014-41.116.019-21.747.005H329.655a22.6,22.6,0,0,0-2.777.081,6.34,6.34,0,0,0-5.324,5.316,21.7,21.7,0,0,0-.082,2.751q0,5.6,0,11.127,0,11.048,0,21.753c-.006,14.261-.012,28.019-.019,41.124q0,2.456,0,4.883,0,1.213,0,2.418a5.342,5.342,0,0,0,.483,2.209,5.428,5.428,0,0,0,3.274,2.91,6.555,6.555,0,0,0,2.241.25h2.337l18.061.016,32.421.04,46.943.1,12.763.06,3.319.032c.748.011,1.131.034,1.131.034s-.383.022-1.131.034l-3.319.031-12.763.061-46.943.1-32.421.04-18.061.016h-2.337a7.143,7.143,0,0,1-2.414-.271,6.01,6.01,0,0,1-3.633-3.219,5.946,5.946,0,0,1-.538-2.45q0-1.2,0-2.419,0-2.425,0-4.883c-.006-13.105-.012-26.862-.019-41.124q0-10.7,0-21.753,0-5.525,0-11.127a22.125,22.125,0,0,1,.088-2.85,6.991,6.991,0,0,1,5.868-5.858,22.97,22.97,0,0,1,2.874-.088h19.563l21.747,0,41.116.02,19.148.014,9.172.007,2.25,0a9.654,9.654,0,0,1,2.278.178,7.033,7.033,0,0,1,3.834,2.363,6.958,6.958,0,0,1,1.568,4.139c.026,1.452,0,2.856.009,4.266q0,4.216-.009,8.275-.011,8.114-.021,15.557c-.044,19.81-.078,35.844-.1,46.946-.011,2.77-.021,5.23-.03,7.366a6.175,6.175,0,0,1-1.708,5,5.732,5.732,0,0,1-2.923,1.535,4.515,4.515,0,0,1-1.131.08" transform="translate(78.385 85.821)" fill="#263238"></path><rect width="46.57" height="46.57" transform="translate(411.077 472.048)" fill="#e0e0e0"></rect><rect width="47.96" height="3.986" transform="translate(469.389 474.877)" fill="#e0e0e0"></rect><rect width="47.96" height="3.986" transform="translate(469.389 483.993)" fill="#e0e0e0"></rect><rect width="47.96" height="3.984" transform="translate(469.389 493.112)" fill="#e0e0e0"></rect><rect width="47.96" height="3.984" transform="translate(469.389 502.228)" fill="#e0e0e0"></rect><path d="M339.5,551.728l-162.681-.1c-19.565-.011-35.42-16.686-35.415-37.248l.08-428.6c0-20.574,15.88-37.245,35.457-37.234l162.681.1c19.566.012,35.418,16.686,35.415,37.248l-.08,428.6c0,20.573-15.88,37.245-35.457,37.233" transform="translate(34.549 11.86)" fill="#263238"></path><path d="M337.335,60.826l-31.541-.02c-4.229,0-7.66,3.764-7.659,8.409l0,6.013c0,4.648-3.431,8.413-7.66,8.41l-61.48-.039c-4.229,0-7.659-3.772-7.658-8.419V69.168c0-4.646-3.428-8.417-7.659-8.418l-11.092-.007-27.607-.017C161.27,60.718,150.15,72.393,150.147,86.8l-.077,418.346c0,14.4,11.1,26.08,24.8,26.089l162.355.1c13.709.009,24.829-11.667,24.832-26.076l.078-418.349c0-14.4-11.1-26.077-24.8-26.086" transform="translate(36.666 14.837)" fill="#fff"></path><path d="M180.117,412.6V424.88a1.347,1.347,0,0,1-2.069,1.14l-9.652-6.138a1.353,1.353,0,0,1,0-2.281l9.652-6.138a1.347,1.347,0,0,1,2.069,1.14" transform="translate(40.991 100.479)" fill="#e0e0e0"></path><path d="M244.754,418.844a8.462,8.462,0,1,1-8.463-8.481,8.472,8.472,0,0,1,8.463,8.481" transform="translate(55.665 100.262)" fill="#e0e0e0"></path><path d="M303.541,426.9h-10.96a2.327,2.327,0,0,1-2.327-2.327V413.577a2.327,2.327,0,0,1,2.327-2.327h10.96a2.327,2.327,0,0,1,2.327,2.327v10.995a2.326,2.326,0,0,1-2.327,2.327" transform="translate(70.917 100.479)" fill="#e0e0e0"></path><path d="M375.121,137.38H296.4a5.666,5.666,0,0,1-5.667-5.667v-54.3a6.69,6.69,0,0,1,6.691-6.689H374.1a6.69,6.69,0,0,1,6.689,6.689v54.3a5.667,5.667,0,0,1-5.665,5.667" transform="translate(71.033 17.279)" fill="#fff"></path><path d="M380.787,85.333H290.73v-7.92a6.69,6.69,0,0,1,6.689-6.689H374.1a6.69,6.69,0,0,1,6.689,6.689Z" transform="translate(71.033 17.279)" fill="#e0e0e0"></path><path d="M301.406,77.732a2.665,2.665,0,1,1-2.665-2.665,2.665,2.665,0,0,1,2.665,2.665" transform="translate(72.339 18.341)" fill="#fff"></path><path d="M307.982,77.732a2.665,2.665,0,1,1-2.665-2.665,2.665,2.665,0,0,1,2.665,2.665" transform="translate(73.946 18.341)" fill="#fff"></path><path d="M314.558,77.732a2.665,2.665,0,1,1-2.665-2.665,2.665,2.665,0,0,1,2.665,2.665" transform="translate(75.552 18.341)" fill="#fff"></path><path d="M375.185,137.444c0-.02.265-.016.773-.092a5.5,5.5,0,0,0,2.118-.784,5.6,5.6,0,0,0,2.3-2.782c.564-1.358.3-3.1.348-5.008-.025-7.685-.061-18.766-.1-32.448q-.013-5.138-.021-10.751-.007-2.805-.011-5.72c-.014-.962.025-1.975-.032-2.919a6.2,6.2,0,0,0-.867-2.713,6.418,6.418,0,0,0-4.758-3.111c-2.01-.1-4.175-.022-6.3-.044l-13.236.014-28.417.019-15.033,0H298.424a11.615,11.615,0,0,0-1.9.081,6.378,6.378,0,0,0-5.193,4.689,15.874,15.874,0,0,0-.21,3.758V83.47q-.006,7.636-.005,15.036c-.007,9.856-.015,19.364-.02,28.423q0,1.7,0,3.375a9.445,9.445,0,0,0,.287,3.2,5.4,5.4,0,0,0,4.6,3.626c4.238.055,8.44.025,12.457.041l22.408.04,32.447.1,8.82.061,2.295.031c.516.011.783.034.783.034s-.266.022-.783.034l-2.295.031-8.82.061-32.447.1-22.408.04c-4.039-.006-8.169.037-12.509-.011a5.975,5.975,0,0,1-5.1-4.005,9.925,9.925,0,0,1-.326-3.392q0-1.676,0-3.375c-.006-9.059-.014-18.567-.02-28.423q0-7.393-.005-15.036,0-1.908,0-3.831V77.713a7.408,7.408,0,0,1,.23-1.993,7.025,7.025,0,0,1,5.723-5.168,12.33,12.33,0,0,1,2-.088h13.521l15.033,0,28.417.019,13.236.014c2.158.027,4.227-.05,6.37.063a6.961,6.961,0,0,1,5.154,3.388,6.778,6.778,0,0,1,.932,2.942c.057,1.032.012,1.982.025,2.963q-.006,2.915-.01,5.72-.011,5.607-.021,10.751c-.044,13.683-.078,24.763-.1,32.448q-.009,1.435-.016,2.711a6.128,6.128,0,0,1-.407,2.367,5.7,5.7,0,0,1-2.411,2.825,5.33,5.33,0,0,1-2.175.737,4.075,4.075,0,0,1-.783.027" transform="translate(70.969 17.216)" fill="#263238"></path><path d="M347.751,100.459A10.851,10.851,0,0,0,345,94.551a10.417,10.417,0,0,0-5.418-3.372,8.411,8.411,0,0,0-9.286,4.282,8.407,8.407,0,0,0-9.061-4.049,10.416,10.416,0,0,0-5.451,3.317,10.848,10.848,0,0,0-2.816,5.879,13.2,13.2,0,0,0,1.6,8.132,18.684,18.684,0,0,0,6.406,6.064c4.192,2.555,9.713,5.756,9.713,5.756s4.7-3.477,8.917-5.988a18.675,18.675,0,0,0,6.468-6,13.2,13.2,0,0,0,1.684-8.116" transform="translate(76.442 22.229)" fill="#ecb82f"></path><path d="M120.668,109.191H31.082a5.667,5.667,0,0,1-5.667-5.667V41.183a6.69,6.69,0,0,1,6.69-6.689h87.541a6.69,6.69,0,0,1,6.69,6.689v62.341a5.667,5.667,0,0,1-5.667,5.667" transform="translate(6.21 8.428)" fill="#fff"></path><path d="M126.335,50.866H25.415V41.183a6.69,6.69,0,0,1,6.69-6.689h87.541a6.69,6.69,0,0,1,6.69,6.689Z" transform="translate(6.21 8.428)" fill="#e0e0e0"></path><path d="M37.379,42.349a2.987,2.987,0,1,1-2.986-2.988,2.986,2.986,0,0,1,2.986,2.988" transform="translate(7.673 9.617)" fill="#fff"></path><path d="M44.748,42.349a2.987,2.987,0,1,1-2.988-2.988,2.987,2.987,0,0,1,2.988,2.988" transform="translate(9.474 9.617)" fill="#fff"></path><path d="M52.117,42.349a2.987,2.987,0,1,1-2.986-2.988,2.986,2.986,0,0,1,2.986,2.988" transform="translate(11.274 9.617)" fill="#fff"></path><path d="M120.732,109.255c0-.025.3-.007.87-.107a5.69,5.69,0,0,0,2.341-.974,5.632,5.632,0,0,0,2.224-3.375,12.317,12.317,0,0,0,.121-2.647q-.007-1.433-.015-3.05c-.024-8.638-.06-21.1-.1-36.5q-.011-5.781-.021-12.095-.006-3.154-.01-6.433c-.012-1.084.02-2.215-.029-3.289a6.343,6.343,0,0,0-1.018-3.031,6.467,6.467,0,0,0-5.637-2.92l-7.131.007-14.887.014-31.964.019-16.909,0H33.354a14.421,14.421,0,0,0-2.146.081,6.389,6.389,0,0,0-5.367,5.6c-.076,2.831-.022,5.767-.04,8.614q0,8.59,0,16.913c-.007,11.087-.014,21.782-.019,31.972q0,1.909,0,3.8a9.9,9.9,0,0,0,.338,3.6,5.451,5.451,0,0,0,5.494,3.513l14.042.016,25.206.04,36.495.1,9.924.06,2.579.032c.582.011.88.034.88.034s-.3.022-.88.034l-2.579.031-9.924.061-36.495.1-25.206.04-14.042.016a6.2,6.2,0,0,1-3.632-.918,5.924,5.924,0,0,1-2.409-2.96,5.67,5.67,0,0,1-.371-1.919l-.01-1.888,0-3.8c0-10.19-.012-20.885-.019-31.972q0-8.317,0-16.913c.019-2.878-.045-5.714.04-8.684a7.038,7.038,0,0,1,5.912-6.168,14.824,14.824,0,0,1,2.245-.087H48.564l16.909,0,31.964.019,14.887.014,7.131.007a7.022,7.022,0,0,1,6.087,3.182,6.891,6.891,0,0,1,1.1,3.286c.049,1.15.011,2.226.02,3.327q0,3.279-.009,6.433-.011,6.309-.021,12.095c-.044,15.395-.078,27.86-.1,36.5q-.007,1.615-.015,3.05a12.46,12.46,0,0,1-.156,2.688,5.743,5.743,0,0,1-2.337,3.441,5.576,5.576,0,0,1-2.405.932,3.787,3.787,0,0,1-.88.042" transform="translate(6.145 8.364)" fill="#263238"></path><path d="M92.493,89.081l-3.112-4.407a15.754,15.754,0,0,1-2.884-9.08l0-9.9a16.161,16.161,0,0,0-13.7-15.967l0-4.726a2.175,2.175,0,1,0-4.35,0l0,4.654A16.158,16.158,0,0,0,54.177,65.7l0,10.259a15.743,15.743,0,0,1-3.358,9.726L48.149,89.1Z" transform="translate(11.764 10.463)" fill="#ecb82f"></path><path d="M64.844,86.6a7.008,7.008,0,0,0,7.251-1.247,6.8,6.8,0,0,0,1.832-2.81L61.01,82.452A7.028,7.028,0,0,0,64.844,86.6" transform="translate(14.906 20.145)" fill="#ecb82f"></path><path d="M432.685,190.218l-45.634-11.174a5.878,5.878,0,0,1-4.312-7.108l15.466-63.165a5.88,5.88,0,0,1,7.109-4.312l28.941,7.086L451,140.123l-11.211,45.784a5.878,5.878,0,0,1-7.108,4.312" transform="translate(93.472 25.481)" fill="#ecb82f"></path><g transform="translate(523.216 137.028)" opacity="0.3"><g clip-path="url(#e)"><path d="M424.993,110.122,420.639,127.9a5.467,5.467,0,0,0,4.01,6.611l17.093,4.188Z" transform="translate(-420.481 -110.122)"></path></g></g><path d="M421.822,124.094c-.056.229-4.828-.744-10.658-2.171s-10.511-2.77-10.455-3,4.827.743,10.658,2.17,10.511,2.77,10.455,3" transform="translate(97.904 29.048)" fill="#fafafa"></path><path d="M433.479,135.508c-.056.229-7.88-1.491-17.474-3.84s-17.33-4.44-17.274-4.669,7.879,1.491,17.477,3.841,17.327,4.439,17.271,4.667" transform="translate(97.42 31.024)" fill="#fafafa"></path><path d="M434.956,143.019c-.056.229-8.581-1.662-19.04-4.223s-18.894-4.823-18.838-5.051,8.58,1.662,19.041,4.223,18.893,4.823,18.837,5.051" transform="translate(97.017 32.673)" fill="#fafafa"></path><path d="M433.4,149.383c-.056.229-8.581-1.662-19.038-4.223s-18.9-4.823-18.839-5.051,8.58,1.662,19.041,4.223,18.893,4.822,18.837,5.051" transform="translate(96.636 34.228)" fill="#fafafa"></path><path d="M431.84,155.746c-.056.229-8.581-1.662-19.038-4.223s-18.9-4.823-18.839-5.051,8.58,1.662,19.041,4.223,18.893,4.823,18.837,5.051" transform="translate(96.255 35.782)" fill="#fafafa"></path><path d="M430.282,162.11c-.056.229-8.581-1.662-19.038-4.223s-18.9-4.823-18.839-5.051,8.58,1.662,19.041,4.223,18.893,4.822,18.837,5.051" transform="translate(95.875 37.337)" fill="#fafafa"></path><path d="M159.889,299.705l-44.033-9.688H15.832l61.859,10.66H159.6c1.142,0,1.381-.806.287-.972" transform="translate(3.868 70.859)" fill="#e0e0e0"></path><path d="M.221,240.883,19.7,303.554H119.724l-19.48-65.481a4.831,4.831,0,0,0-4.63-3.454H4.834a4.831,4.831,0,0,0-4.613,6.265" transform="translate(0 57.323)" fill="#e0e0e0"></path><path d="M14.661,290.1c0-.179,22.636-.323,50.551-.323s50.556.144,50.556.323-22.631.324-50.556.324-50.551-.144-50.551-.324" transform="translate(3.582 70.799)" fill="#263238"></path><path d="M53.9,262.631a5.664,5.664,0,1,1-5.664-5.664,5.664,5.664,0,0,1,5.664,5.664" transform="translate(10.402 62.784)" fill="#fff"></path><path d="M143,252.605c.118.133-8.308,7.854-18.819,17.244s-19.134,16.9-19.252,16.761,8.3-7.853,18.82-17.245,19.13-16.893,19.251-16.76" transform="translate(25.636 61.718)" fill="#263238"></path><path d="M110.552,250.335c.168.062-1.772,5.65-4.33,12.479s-4.77,12.315-4.937,12.253,1.771-5.649,4.332-12.481,4.768-12.315,4.936-12.252" transform="translate(24.744 61.163)" fill="#263238"></path><path d="M139.924,282.34c.027.177-6.452,1.308-14.468,2.527s-14.54,2.063-14.567,1.886,6.451-1.309,14.469-2.527,14.539-2.063,14.566-1.886" transform="translate(27.093 68.977)" fill="#263238"></path><path d="M140.125,313.727a4.974,4.974,0,0,1-.845-.143l-2.418-.518-9-2.032-30.747-7.156-.178-.041-.052-.175c-1.248-4.22-2.575-8.7-3.94-13.316-4.492-15.352-8.558-29.248-11.52-39.369-1.432-5-2.6-9.074-3.419-11.952q-.569-2.061-.9-3.258c-.088-.343-.159-.623-.219-.852a1.042,1.042,0,0,1-.052-.3,1.113,1.113,0,0,1,.117.279c.075.224.167.5.279.834q.373,1.182,1.015,3.224c.871,2.863,2.1,6.912,3.617,11.893l11.7,39.316c1.359,4.615,2.679,9.1,3.921,13.32l-.229-.218,30.7,7.378,8.952,2.212,2.393.62a4.866,4.866,0,0,1,.82.251" transform="translate(18.773 57.323)" fill="#263238"></path><path d="M421.26,388.975h0a32.495,32.495,0,1,1,32.494-32.5,32.494,32.494,0,0,1-32.494,32.5" transform="translate(94.986 79.158)" fill="#ecb82f"></path><path d="M411.709,373.6h7.91V353.789h5.519l.589-6.632h-6.107v-3.778c0-1.563.314-2.181,1.825-2.181h4.282v-6.884h-5.477c-5.886,0-8.54,2.593-8.54,7.554v5.288h-4.115v6.716h4.115Z" transform="translate(99.586 81.682)" fill="#fff"></path><path d="M203.211,72.685h0a36.342,36.342,0,1,1,36.342-36.343,36.343,36.343,0,0,1-36.342,36.343" transform="translate(40.77)" fill="#455a64"></path><path d="M199.988,16.783c5.321,0,5.95.021,8.052.117a11.043,11.043,0,0,1,3.7.686,6.6,6.6,0,0,1,3.782,3.782,11.044,11.044,0,0,1,.686,3.7c.1,2.1.117,2.731.117,8.052s-.021,5.952-.117,8.052a11.037,11.037,0,0,1-.686,3.7,6.6,6.6,0,0,1-3.782,3.782,11.043,11.043,0,0,1-3.7.686c-2.1.1-2.731.116-8.052.116s-5.952-.02-8.052-.116a11.043,11.043,0,0,1-3.7-.686,6.6,6.6,0,0,1-3.782-3.782,11.035,11.035,0,0,1-.686-3.7c-.1-2.1-.117-2.731-.117-8.052s.021-5.95.117-8.052a11.043,11.043,0,0,1,.686-3.7,6.6,6.6,0,0,1,3.782-3.782,11.043,11.043,0,0,1,3.7-.686c2.1-.1,2.731-.117,8.052-.117m0-3.59c-5.412,0-6.091.024-8.216.121a14.6,14.6,0,0,0-4.837.926,10.188,10.188,0,0,0-5.827,5.828,14.587,14.587,0,0,0-.926,4.835c-.1,2.127-.121,2.8-.121,8.216s.024,6.091.121,8.216a14.6,14.6,0,0,0,.926,4.837A10.191,10.191,0,0,0,186.935,52a14.631,14.631,0,0,0,4.837.927c2.125.1,2.8.119,8.216.119s6.09-.022,8.215-.119A14.632,14.632,0,0,0,213.041,52a10.19,10.19,0,0,0,5.827-5.827,14.631,14.631,0,0,0,.927-4.837c.1-2.125.119-2.8.119-8.216s-.024-6.09-.119-8.216a14.616,14.616,0,0,0-.927-4.835,10.188,10.188,0,0,0-5.827-5.828,14.6,14.6,0,0,0-4.838-.926c-2.125-.1-2.8-.121-8.215-.121" transform="translate(43.994 3.223)" fill="#fff"></path><path d="M198.084,20.984a10.232,10.232,0,1,0,10.232,10.232,10.232,10.232,0,0,0-10.232-10.232m0,16.874a6.642,6.642,0,1,1,6.642-6.642,6.642,6.642,0,0,1-6.642,6.642" transform="translate(45.897 5.127)" fill="#fff"></path><path d="M207.484,21.129a2.392,2.392,0,1,1-2.392-2.392,2.392,2.392,0,0,1,2.392,2.392" transform="translate(49.525 4.578)" fill="#fff"></path><path d="M64.122,203.576h0a32.5,32.5,0,1,1,32.5-32.5,32.5,32.5,0,0,1-32.5,32.5" transform="translate(7.727 33.86)" fill="#455a64"></path><path d="M79.056,167.3a17.5,17.5,0,0,0-34.976-.319c-.007.254-.016.508-.016.762a17.242,17.242,0,0,0,2.507,8.972l-3.154,9.315,9.692-3.081a17.521,17.521,0,0,0,25.955-15.206c0-.148,0-.295-.009-.443M61.564,182.341a14.657,14.657,0,0,1-8.094-2.416l-5.653,1.8,1.835-5.424a14.447,14.447,0,0,1-2.8-8.561,13.733,13.733,0,0,1,.073-1.417,14.72,14.72,0,0,1,29.306.279c.032.377.049.753.049,1.139a14.674,14.674,0,0,1-14.714,14.6" transform="translate(10.608 36.74)" fill="#fff" fill-rule="evenodd"></path><path d="M67.7,169.395c-.434-.213-2.54-1.246-2.933-1.384s-.681-.214-.967.213-1.115,1.384-1.36,1.662-.5.32-.934.107a11.6,11.6,0,0,1-3.449-2.114,12.737,12.737,0,0,1-2.384-2.942c-.245-.426-.025-.655.189-.869.2-.2.426-.5.647-.745.057-.073.106-.139.156-.2a4.854,4.854,0,0,0,.27-.509.765.765,0,0,0-.032-.745c-.107-.213-.967-2.311-1.328-3.162s-.712-.706-.967-.706-.533-.04-.819-.04a1.585,1.585,0,0,0-1.147.531,4.77,4.77,0,0,0-1.5,3.556,5.435,5.435,0,0,0,.221,1.451,9.659,9.659,0,0,0,1.532,2.949c.213.279,2.966,4.718,7.324,6.432,4.368,1.695,4.368,1.13,5.154,1.056a4.279,4.279,0,0,0,2.892-2.025,3.514,3.514,0,0,0,.254-2.023c-.106-.172-.393-.279-.819-.492" transform="translate(12.495 38.593)" fill="#fff" fill-rule="evenodd"></path><path d="M151.87,237.579l6.051-32.182,17.27-2.476-1.317,34.658Z" transform="translate(37.106 49.579)" fill="#cc675d"></path><path d="M174.988,219.285s8.866-5.418,12.57-11.837,12.839-10.37,12.1-12.1-4.939-2.715-7.407-1.234-8.145,8.185-10.615,4.976-2.81-18.881-3.3-23.82-2.309-9.227-4.038-8.059-2.445,1.981-1.945,7.766c.472,5.463.642,15.435-.84,13.706s-1.976-24.446-3.951-24.94a3.728,3.728,0,0,0-4.445,4.018c.246,2.9.215,24.379-.016,21.415s-1.47-12.537-3.064-16.523c-1.206-3.015-4.283.728-3.789,3.444s3.412,19.994,2.178,19.746c0,0-2.716-13.827-3.951-14.569s-3.3,2.682-2.716,5.68c.915,4.692,2.469,13.827,2.963,19.754s3.21,13.333,4.939,14.075,15.333-1.5,15.333-1.5" transform="translate(37.053 39.985)" fill="#cc675d"></path><path d="M162.8,201.7c-.037-.016.052-.321.294-.841a9.1,9.1,0,0,1,1.369-2.012,10.659,10.659,0,0,1,7.1-3.52c1.61-.111,3.066.239,4.344.141a7.3,7.3,0,0,0,3.213-1.075c1.695-1.04,2.652-1.88,2.723-1.787.029.034-.182.27-.594.661a14.919,14.919,0,0,1-1.886,1.514,7.336,7.336,0,0,1-3.411,1.283c-1.4.132-2.866-.2-4.344-.091a10.862,10.862,0,0,0-6.809,3.189,26.247,26.247,0,0,0-2,2.538" transform="translate(39.773 47.057)" fill="#9c4741"></path><g transform="translate(196.62 157.341)" opacity="0.3"><g clip-path="url(#f)"><path d="M370.213,372.458c-3.651-4.081-10.162-2.547-15.615-2.047-16.67,1.527-32.218-10.472-40.069-25.257s-9.611-31.937-11.228-48.6c-.607-6.255-.882-13.466,3.672-17.8,3.752-3.569,9.437-3.836,14.59-4.353a89.645,89.645,0,0,0,32.823-9.892c4.96-2.618,9.814-5.842,12.881-10.537s3.979-11.15.982-15.891c-3.265-5.164-9.879-6.874-15.875-8.045a488.827,488.827,0,0,0-72.591-8.6c1.172-14.591,2.341-29.326.274-43.819s-7.672-28.927-18.246-39.052-26.652-15.15-40.428-10.2a33,33,0,0,0-1.721,61.436c8.725,3.7,20.111,4.5,24.5,12.9,2.954,5.65,1.2,12.819-2.563,17.963s-9.224,8.733-14.459,12.372a319.372,319.372,0,0,0-54.814,48.287l-14.091,21.329c-1.623,6.713,5.916,12.759,12.815,12.44s12.828-4.755,18.3-8.965,11.488-8.575,18.392-8.715c9.234-.187,17.111,7.6,20.057,16.358s2.049,18.278,1.03,27.459c-1.764,15.9-5.28,34.081-19.244,41.88-7.371,4.117-16.211,4.359-24.346,6.616s-16.6,8.048-16.975,16.482c-.332,7.524,5.957,13.712,12.518,17.409s33.98,4.643,39.322,9.952c6.3,6.255,1.861,12.284,1.533,24.472-.2,7.37,1.863,15.467,7.335,20.407s7.447,6.661,14.292,3.923c11.007-4.4,13.186-18.625,18.914-29,3.459-6.269,8.994-11.722,15.924-13.517s15.2.855,18.588,7.164c2.609,4.865,2.757,11.858,7.811,14.08,5.723,2.515,11.607-4.283,12-10.521s-2.191-12.4-1.686-18.625c1.055-12.976,14.374-20.983,26.392-25.988s25.781-10.63,30.1-22.913c1.236-3.518,1.4-7.818-1.089-10.6" transform="translate(-158.013 -126.447)"></path></g></g><path d="M265.192,378.736l19.056-8.5L270.1,339.881l-20.251,10.7Z" transform="translate(61.045 83.042)" fill="#ffbf9d"></path><path d="M260.666,348.3,231.5,364.739l-11.81,1.64c-4.482.623-3.128,4.139-2.506,8.622l7.6,54.688s5.85,1.817,7.006-2.458,13.776-37.2,13.776-37.2l27.841-13.41Z" transform="translate(52.897 85.098)" fill="#e0e0e0"></path><path d="M260.712,348.3s.081.149.231.467l.664,1.428,2.555,5.563c2.232,4.9,5.458,11.983,9.468,20.789l.08.173-.173.083-27.816,13.462.127-.137c-2.533,6.707-5.246,13.885-8.088,21.411-1.4,3.769-2.841,7.625-4.244,11.571q-.53,1.478-1.03,2.978c-.17.506-.287.981-.487,1.517a3.12,3.12,0,0,1-.353.773l-.225.367-.292.319a4.58,4.58,0,0,1-3.082,1.272,10.015,10.015,0,0,1-3.3-.373l-.172-.048-.025-.183c-.025-.178-.052-.372-.078-.565-2.058-14.865-4.019-29.038-5.806-41.952q-.666-4.842-1.3-9.441c-.215-1.532-.4-3.041-.652-4.514a14.1,14.1,0,0,1-.306-4.482,2.867,2.867,0,0,1,1.224-1.921,5.443,5.443,0,0,1,2.1-.7l4.091-.56,7.7-1.053-.072.025L252.9,352.6l5.8-3.215,1.5-.822c.337-.182.505-.261.505-.261s-.18.117-.523.317c-.361.21-.865.5-1.516.879l-5.8,3.326-21.227,12.1-.034.019-.039,0-7.7,1.088-4.09.576a4.987,4.987,0,0,0-1.9.636,2.387,2.387,0,0,0-1.02,1.626,13.885,13.885,0,0,0,.322,4.31c.259,1.482.449,3,.668,4.526q.644,4.592,1.323,9.437c1.8,12.914,3.777,27.084,5.848,41.947.027.193.053.386.078.562l-.2-.229a9.516,9.516,0,0,0,3.095.35,4.02,4.02,0,0,0,2.714-1.1,6.737,6.737,0,0,0,1.229-2.76q.506-1.508,1.035-2.989c1.409-3.953,2.85-7.807,4.258-11.576,2.857-7.522,5.583-14.7,8.13-21.4l.035-.093.092-.045,27.865-13.358-.093.258-9.219-20.764c-1.075-2.439-1.91-4.335-2.487-5.646-.275-.633-.488-1.125-.642-1.478-.143-.335-.213-.52-.213-.52" transform="translate(52.851 85.098)" fill="#263238"></path><path d="M254.679,345.556l-7.014,4.519a2.49,2.49,0,0,0-.872,3.22l13.12,25.82a2.492,2.492,0,0,0,3.115,1.2l7.574-2.918a2.491,2.491,0,0,0,1.333-3.436l-13.679-27.42a2.489,2.489,0,0,0-3.576-.982" transform="translate(60.232 84.331)" fill="#e0e0e0"></path><path d="M260.347,378.629a26.963,26.963,0,0,1-2.5-3.73c-1.451-2.362-3.376-5.677-5.306-9.446s-3.473-7.284-4.488-9.866c-.508-1.29-.9-2.343-1.139-3.081a4.2,4.2,0,0,1-.315-1.168,35.7,35.7,0,0,1,1.9,4.063c1.126,2.525,2.731,5.988,4.651,9.743s3.773,7.093,5.115,9.513a32.205,32.205,0,0,1,2.082,3.973" transform="translate(60.249 85.841)" fill="#263238"></path><path d="M248.519,355.263c-.153-.072,1.675-2.634,5.123-4.125,3.432-1.529,6.554-1.141,6.5-.981.01.214-2.971.144-6.23,1.6-3.279,1.411-5.247,3.655-5.4,3.5" transform="translate(60.718 85.512)" fill="#263238"></path><path d="M251.426,363.618c-.1-.156,2.5-1.926,5.923-3.727s6.349-2.948,6.423-2.78-2.705,1.586-6.106,3.382-6.14,3.289-6.24,3.125" transform="translate(61.429 87.248)" fill="#263238"></path><path d="M256.5,371.751c-.055-.209,3.026-.64,5.944-2.9,2.957-2.212,4.19-5.068,4.376-4.961a4.269,4.269,0,0,1-.74,1.869,12.587,12.587,0,0,1-7.582,5.775,4.28,4.28,0,0,1-2,.218" transform="translate(62.669 88.907)" fill="#263238"></path><path d="M217.752,375.588c-.027-.108,1.008-.367,2.522-1.114a14.891,14.891,0,0,0,7.98-9.872c.412-1.639.448-2.7.56-2.7a6.454,6.454,0,0,1-.09,2.8,13.723,13.723,0,0,1-8.251,10.21,6.475,6.475,0,0,1-2.721.674" transform="translate(53.202 88.422)" fill="#263238"></path><path d="M221.354,400.93a4.349,4.349,0,0,1,1.929-.789,8.884,8.884,0,0,1,5.033.32,12.319,12.319,0,0,1,4.228,2.731c.916.9,1.371,1.553,1.31,1.609-.076.072-.656-.46-1.629-1.248a15.15,15.15,0,0,0-4.142-2.451,9.864,9.864,0,0,0-4.714-.487,11.772,11.772,0,0,1-2.016.315" transform="translate(54.082 97.71)" fill="#263238"></path><path d="M209.844,321.924s-28.595-3.572-37.7-1.71S145.847,332.842,147.5,349.2s12.463,28.083,25.714,30.154,87.231,9.569,115.894,9.182c24.259-.327,37.433-6.471,34.671-10.245,0,0,25.545-9.719,28.209-10.859,2.058-.881,39.6-19.474,43.534-26.306s13.25-30.019-3.106-41.613-44.3-3.727-49.273,0c-2.439,1.829-6.789,3.1-15.543,9.488l-8.346-5.744c-.592.444-67.826,5.149-94.437,6.36-4.513.205-14.977,12.309-14.977,12.309" transform="translate(36.012 71.692)" fill="#263238"></path><path d="M262.22,351.208c-.739-3.164-1.071-4.328-.258-6.38a18.48,18.48,0,0,1,3.809-5.37c1-1.1,2.17-2.282,3.652-2.3,1.875-.025,3.187,1.773,4.18,3.363q5.465,8.756,11.641,17.041c2.363,3.169,4.889,6.361,8.31,8.344,1.253.728,2.821,1.613,2.751,3.062-.056,1.142-1.147,1.922-2.146,2.481a44.519,44.519,0,0,1-5.856,2.741,9.237,9.237,0,0,1-11.185-1.791c-7.014-5.8-12.514-13.157-15.111-21.881" transform="translate(63.888 82.376)" fill="#263238"></path><path d="M262.027,350.557a1.069,1.069,0,0,1,.113.26c.075.205.167.462.28.777.236.686.609,1.69,1.16,2.949a43.609,43.609,0,0,0,6.008,9.928,50.2,50.2,0,0,0,5.49,5.852c1.069.967,2.2,1.96,3.424,2.866a8.918,8.918,0,0,0,4.2,1.832,10.954,10.954,0,0,0,4.786-.77,43.726,43.726,0,0,0,4.763-2.052c.779-.4,1.59-.813,2.327-1.273a2.749,2.749,0,0,0,1.463-1.883,2.39,2.39,0,0,0-1.252-2.007c-.72-.523-1.578-.936-2.367-1.488-3.177-2.178-5.446-5.2-7.559-8.028-2.118-2.853-4.1-5.652-5.93-8.353s-3.52-5.306-5.057-7.768a12.459,12.459,0,0,0-2.494-3.254,3.133,3.133,0,0,0-1.675-.725,2.94,2.94,0,0,0-1.7.4,11.314,11.314,0,0,0-2.542,2.317,27.5,27.5,0,0,0-1.995,2.4,8.5,8.5,0,0,0-1.847,4.513,14.966,14.966,0,0,0,.421,3.117c.066.33.118.6.161.811a.142.142,0,1,1-.056.012c-.057-.212-.128-.473-.215-.8a13.524,13.524,0,0,1-.53-3.147,8.64,8.64,0,0,1,1.808-4.694,27.406,27.406,0,0,1,1.986-2.453,11.491,11.491,0,0,1,2.614-2.424,3.342,3.342,0,0,1,1.929-.465,3.558,3.558,0,0,1,1.91.8,12.77,12.77,0,0,1,2.621,3.347c1.552,2.448,3.249,5.037,5.091,7.725s3.826,5.474,5.944,8.316c2.114,2.825,4.361,5.789,7.434,7.892.753.53,1.593.932,2.38,1.5a4.5,4.5,0,0,1,1.06,1.028,2.26,2.26,0,0,1,.421,1.482,3.272,3.272,0,0,1-1.721,2.307c-.8.493-1.582.891-2.383,1.3a43.859,43.859,0,0,1-4.832,2.066,11.4,11.4,0,0,1-5.023.778,9.385,9.385,0,0,1-4.431-1.947,44.619,44.619,0,0,1-3.449-2.922,49.577,49.577,0,0,1-5.486-5.949,41.922,41.922,0,0,1-5.9-10.091,30.312,30.312,0,0,1-1.065-3c-.092-.324-.167-.585-.226-.8a1.13,1.13,0,0,1-.058-.276" transform="translate(63.867 82.335)" fill="#455a64"></path><path d="M328.427,300.593c-.01.045-.269-.04-.773.063a18.235,18.235,0,0,0-2.163.515c-1.864.535-4.524,1.437-7.8,2.6-1.618.577-3.47,1.226-5.363,1.82-1.818.81-3.3,2.472-4.969,4.038-3.314,3.182-6.935,6.7-10.695,10.431-7.524,7.466-14.137,14.423-18.771,19.6-2.328,2.577-4.167,4.7-5.439,6.168q-.909,1.051-1.463,1.692a3.92,3.92,0,0,1-.543.565,4.185,4.185,0,0,1,.453-.637c.352-.447.81-1.032,1.382-1.761,1.222-1.512,3.019-3.679,5.31-6.294,4.564-5.246,11.139-12.258,18.67-19.731,3.765-3.737,7.4-7.244,10.734-10.406,1.674-1.542,3.179-3.229,5.144-4.091,2.006-.615,3.758-1.2,5.42-1.768,3.29-1.114,5.978-1.96,7.869-2.434a14.586,14.586,0,0,1,2.209-.414,1.786,1.786,0,0,1,.59.007.547.547,0,0,1,.194.042" transform="translate(66.078 73.426)" fill="#455a64"></path><path d="M251.571,348.958a4.384,4.384,0,0,1-.745-.323q-.788-.39-2.084-1.028l-7.619-3.874-11.267-5.809a111.548,111.548,0,0,0-14.007-6.555,39.975,39.975,0,0,0-7.77-1.819,12.182,12.182,0,0,1-3.721-1.145,9.94,9.94,0,0,1-2.787-2.484,10.73,10.73,0,0,0-5.54-3.449,20.236,20.236,0,0,0-5.781-.643c-3.586.117-6.5.528-8.524.528-1.013.019-1.8-.017-2.329-.06a4.2,4.2,0,0,1-.805-.109,4.52,4.52,0,0,1,.81-.005c.53.006,1.312.006,2.317-.046,2.013-.067,4.894-.538,8.52-.707a20.32,20.32,0,0,1,5.917.59,12.819,12.819,0,0,1,3.093,1.267,10.778,10.778,0,0,1,2.711,2.288,9.505,9.505,0,0,0,2.654,2.356A11.746,11.746,0,0,0,208.172,329a39.949,39.949,0,0,1,7.86,1.83,107.285,107.285,0,0,1,14.063,6.629l11.21,5.916,7.537,4.033,2.036,1.121a4.384,4.384,0,0,1,.692.426" transform="translate(43.634 78.53)" fill="#455a64"></path><path d="M252.253,379.737l-19.586-3.992,6.928-31.33,21.162,5.8Z" transform="translate(56.847 84.15)" fill="#ffbf9d"></path><path d="M254.382,349.352l30.689,9.324,9.512-.768a5.4,5.4,0,0,1,5.811,4.945l4.446,55.172s-6.48,1.49-8.449-2.267-19.22-30.506-19.22-30.506l-28.822-6.762Z" transform="translate(60.678 85.356)" fill="#e0e0e0"></path><path d="M254.427,349.352s-.026.188-.091.533c-.071.365-.168.869-.294,1.518-.268,1.348-.655,3.295-1.151,5.8-1.017,5.033-2.482,12.3-4.305,21.328l-.148-.231L277.273,385l.1.024.056.087,11.692,18.243c2.036,3.217,4.116,6.5,6.181,9.891.514.837,1.015,1.736,1.512,2.572a4.15,4.15,0,0,0,2.164,1.718,11.227,11.227,0,0,0,5.843.21l-.218.3c-.009-.1-.019-.218-.027-.331-1.134-14.167-2.216-27.676-3.2-39.991q-.366-4.618-.714-9-.172-2.191-.341-4.318c-.065-.7-.088-1.435-.2-2.081a5.071,5.071,0,0,0-.73-1.839,5.177,5.177,0,0,0-3.085-2.21,12.967,12.967,0,0,0-3.824.026l-7.353.576-.04,0-.036-.011L262.7,351.96l-6.113-1.91-1.6-.508c-.362-.118-.555-.19-.555-.19s.173.039.526.139l1.575.455,6.1,1.8,22.55,6.733-.075-.007,7.35-.61,1.934-.16a6.136,6.136,0,0,1,2.036.129,5.637,5.637,0,0,1,3.371,2.4,5.543,5.543,0,0,1,.806,2.006c.121.737.138,1.416.208,2.132q.176,2.126.355,4.315.358,4.381.738,9c1,12.314,2.094,25.822,3.244,39.988.009.113.017.227.026.331l.02.253-.239.046a11.728,11.728,0,0,1-6.172-.233,4.723,4.723,0,0,1-2.445-1.955c-.521-.882-.989-1.722-1.511-2.573-2.056-3.381-4.134-6.671-6.164-9.886L277,385.391l.156.11-28.809-6.819-.188-.045.04-.187,4.544-21.406,1.237-5.735c.139-.63.246-1.119.325-1.473.076-.328.121-.484.121-.484" transform="translate(60.632 85.356)" fill="#263238"></path><path d="M253.267,345.825l8.72,3.222a2.513,2.513,0,0,1,1.563,2.983l-7.279,28.306a2.514,2.514,0,0,1-2.807,1.859l-8.1-1.218a2.513,2.513,0,0,1-2.064-3.093l7.691-30.854a1.728,1.728,0,0,1,2.276-1.2" transform="translate(59.426 84.468)" fill="#e0e0e0"></path><path d="M253.32,345.834a2.428,2.428,0,0,0-.92-.019,1.682,1.682,0,0,0-.92.562,3.122,3.122,0,0,0-.511,1.414c-.561,2.341-1.351,5.638-2.323,9.69-1,4.1-2.194,8.962-3.514,14.352q-.5,2.025-1.024,4.146-.256,1.053-.518,2.127a2.221,2.221,0,0,0,.518,1.863,2.258,2.258,0,0,0,.814.587,4.2,4.2,0,0,0,1.051.23l2.3.343,4.7.706a4.578,4.578,0,0,0,1.124.1,2.214,2.214,0,0,0,.992-.338,2.3,2.3,0,0,0,.724-.749,3.811,3.811,0,0,0,.356-1.034q.586-2.27,1.154-4.471c.759-2.928,1.492-5.754,2.19-8.448,1.4-5.371,2.67-10.211,3.739-14.3a3.8,3.8,0,0,0,.225-1.441,2.346,2.346,0,0,0-.514-1.232c-.543-.709-1.487-.855-2.251-1.192l-4-1.531-2.522-.988a5.806,5.806,0,0,1-.866-.381,5.8,5.8,0,0,1,.906.274l2.558.888,4.038,1.44,1.219.439a2.706,2.706,0,0,1,1.814,2.24,4.145,4.145,0,0,1-.216,1.583c-1.034,4.1-2.261,8.945-3.621,14.328-.688,2.7-1.41,5.525-2.158,8.456l-1.146,4.472a4.276,4.276,0,0,1-.414,1.178,2.822,2.822,0,0,1-.907.939,2.759,2.759,0,0,1-1.243.427,2.894,2.894,0,0,1-.664-.015l-.595-.09-4.7-.708-2.3-.348a4.641,4.641,0,0,1-1.183-.269,2.8,2.8,0,0,1-1.015-.737,2.767,2.767,0,0,1-.64-2.326c.17-.759.357-1.445.531-2.159q.534-2.117,1.043-4.141c1.364-5.38,2.594-10.23,3.632-14.323,1.044-4.034,1.894-7.315,2.5-9.646a3.233,3.233,0,0,1,.6-1.47,1.775,1.775,0,0,1,1.025-.565,1.611,1.611,0,0,1,.717.036.65.65,0,0,1,.224.095" transform="translate(59.373 84.459)" fill="#263238"></path><path d="M260.83,354.3c.134-.1-2.226-2.229-5.949-2.944-3.716-.755-6.707.31-6.621.458.036.213,2.958-.509,6.488.216,3.539.673,5.968,2.453,6.082,2.27" transform="translate(60.656 85.78)" fill="#263238"></path><path d="M259.122,362.933c.056-.164-2.715-1.3-6.257-2.3s-6.483-1.484-6.515-1.314,2.833.942,6.351,1.94,6.362,1.847,6.421,1.672" transform="translate(60.19 87.783)" fill="#263238"></path><path d="M256.329,372.237c.007-.218-3.122.031-6.49-1.558-3.4-1.533-5.236-4.076-5.4-3.93-.066.045.292.743,1.137,1.679a12.711,12.711,0,0,0,8.734,4.032,4.292,4.292,0,0,0,2.016-.223" transform="translate(59.722 89.605)" fill="#263238"></path><path d="M292.924,367.318c0-.107-1.019-.133-2.591-.518a14.263,14.263,0,0,1-9.512-7.578c-.727-1.446-.981-2.435-1.085-2.408a6.176,6.176,0,0,0,.666,2.6,13.148,13.148,0,0,0,9.836,7.836,6.171,6.171,0,0,0,2.685.066" transform="translate(68.342 87.179)" fill="#263238"></path><path d="M294.879,392.1a4.17,4.17,0,0,0-1.967-.337,8.513,8.513,0,0,0-4.641,1.344,11.783,11.783,0,0,0-3.387,3.432,4.916,4.916,0,0,0-.892,1.777c.086.052.518-.566,1.266-1.5a14.5,14.5,0,0,1,3.363-3.153,9.462,9.462,0,0,1,4.309-1.433,11.253,11.253,0,0,0,1.95-.124" transform="translate(69.384 95.717)" fill="#263238"></path><path d="M241.042,380.025c5.631-7.344,7.91-16.787,8.32-26.033a11.554,11.554,0,0,0-.91-6.044,10.746,10.746,0,0,0-3.5-3.5,38.291,38.291,0,0,0-6.655-3.707,2.491,2.491,0,0,0-2.134-.207c-.764.422-.88,1.452-.916,2.323a86.93,86.93,0,0,1-7.671,32.137,3.067,3.067,0,0,0,2.388,4.329c1.8.23,3.823.494,5.311.7a19.145,19.145,0,0,0,5.769,0" transform="translate(55.534 83.16)" fill="#263238"></path><path d="M241.081,380.079a.809.809,0,0,1-.254.071c-.17.035-.427.077-.764.118a19.076,19.076,0,0,1-2.966.1c-1.294-.054-2.852-.295-4.662-.505-.913-.128-1.853-.194-2.918-.4a3.26,3.26,0,0,1-2.193-4.239c.229-.592.479-1.124.725-1.707.488-1.151.978-2.357,1.447-3.618.944-2.522,1.838-5.261,2.621-8.186a89.674,89.674,0,0,0,2.933-19.46,3.132,3.132,0,0,1,.433-1.364,1.646,1.646,0,0,1,1.307-.745,6.2,6.2,0,0,1,2.568.806,38.321,38.321,0,0,1,4.451,2.438,19.313,19.313,0,0,1,3.877,3.036,7.521,7.521,0,0,1,1.9,4.346,24.557,24.557,0,0,1-.009,4.478c-.088,1.442-.234,2.837-.406,4.182a53.455,53.455,0,0,1-1.5,7.386,39.131,39.131,0,0,1-4.274,10.014,26.812,26.812,0,0,1-1.672,2.456l-.477.606c-.108.133-.165.2-.17.189a1.17,1.17,0,0,1,.137-.235c.116-.172.256-.382.428-.64.382-.541.922-1.385,1.565-2.49a40.86,40.86,0,0,0,4.078-10.007,54.523,54.523,0,0,0,1.421-7.34c.159-1.335.295-2.721.375-4.152a24.456,24.456,0,0,0-.012-4.384,6.991,6.991,0,0,0-1.787-4.048,18.923,18.923,0,0,0-3.774-2.932,38.606,38.606,0,0,0-4.391-2.4,5.918,5.918,0,0,0-2.3-.753c-.759.007-1.144.783-1.211,1.611a88.281,88.281,0,0,1-2.991,19.53c-.8,2.939-1.716,5.688-2.685,8.216-.482,1.267-.984,2.474-1.486,3.626-.246.57-.524,1.149-.732,1.676a2.809,2.809,0,0,0-.107,1.619,2.86,2.86,0,0,0,2,2.132c.963.2,1.975.292,2.864.432,1.81.24,3.36.514,4.633.6a22.4,22.4,0,0,0,2.944.01l.765-.061a1.1,1.1,0,0,1,.263-.014" transform="translate(55.494 83.105)" fill="#455a64"></path><path d="M240.9,344.024c-.128.068-1.056-1.633-2.864-4.157a47.577,47.577,0,0,0-18.39-15.354c-2.806-1.329-4.645-1.937-4.6-2.077a4.263,4.263,0,0,1,1.34.28,28.95,28.95,0,0,1,3.508,1.247,41.744,41.744,0,0,1,18.64,15.564,28.845,28.845,0,0,1,1.852,3.229,4.234,4.234,0,0,1,.515,1.268" transform="translate(52.541 78.776)" fill="#455a64"></path><path d="M281.348,319.97a29.045,29.045,0,0,1-2.83,3.327c-1.777,2.018-4.152,4.87-6.54,8.2s-4.322,6.5-5.66,8.83a28.784,28.784,0,0,1-2.242,3.748,18.094,18.094,0,0,1,1.711-4.034,70.257,70.257,0,0,1,12.29-17.149,18.117,18.117,0,0,1,3.271-2.918" transform="translate(64.518 78.176)" fill="#455a64"></path><path d="M232.537,104.563a8.984,8.984,0,0,0-7.791-1.681c-1.085.284-2.248.77-3.278.325a7.193,7.193,0,0,1-1.787-1.583,4.554,4.554,0,0,0-6.5.671,5.371,5.371,0,0,1-1.111,1.421c-2.007,1.4-4.909-2.311-6.9-.886a5.142,5.142,0,0,1,2.642,1.567,2.32,2.32,0,0,1,.107,2.869c-1.782,2.025-5.606-1.486-7.656.268-1.106.946-1.005,3.017-2.365,3.538a4.987,4.987,0,0,1-1.676.1,3.732,3.732,0,0,0-3.523,3.688c.046,1.611,1.1,3.451.045,4.67a3.5,3.5,0,0,1-2.8.776,9.652,9.652,0,0,0,1.6,4.08,5.825,5.825,0,0,0-.931,8.042,12.477,12.477,0,0,0-2.9,3.854,4.327,4.327,0,0,0,.561,4.553,3.925,3.925,0,0,1,.729.821,2.175,2.175,0,0,1,.156,1.167c-.111,1.532-.579,3.061-.335,4.575s1.593,3.035,3.1,2.706c.35-.077.725-.246,1.049-.092a1.017,1.017,0,0,1,.457.643,10.388,10.388,0,0,1,.205,3.285,4.393,4.393,0,0,0,.9,3.1,1.892,1.892,0,0,0,2.867-.029q-.319,2.624-.64,5.249c-.127,1.04-.175,2.283.656,2.924,1.089.84,2.729-.148,3.309-1.395s.59-2.7,1.2-3.931a8.219,8.219,0,0,0,.742-1.507,2.716,2.716,0,0,1,.408-1.248c.61-.651,1.786.162,1.808,1.053a4.7,4.7,0,0,1-1.059,2.411,2.261,2.261,0,0,0-.239,2.495c.266.338.692.526.949.871.89,1.2-.844,2.7-.875,4.185a3.586,3.586,0,0,0,1.767,2.639c1.069.816,3,1.336,3.437.066a12.41,12.41,0,0,0,.113-1.387,3.378,3.378,0,0,1,.893-1.351,6.975,6.975,0,0,0,1.611-3.672c-.944,1.533-1.891,3.52-.883,5.011a7.463,7.463,0,0,0,1.695,1.475c1.156.92,1.967,2.21,3.11,3.147s2.887,1.448,4.074.567a3.327,3.327,0,0,0,5.955,2.548,2.893,2.893,0,0,1,.8-.915,2.37,2.37,0,0,1,1.293-.136,7.215,7.215,0,0,0,6.549-3.667l-1.371-.289c2.532-.669,5.166-1.394,7.118-3.136s2.958-4.835,1.537-7.027c-.616-.951-1.676-1.869-1.392-2.965.194-.755.964-1.192,1.662-1.544l8.765-4.422a8.689,8.689,0,0,0,3.737-2.847c.829-1.351.646-3.448-.78-4.147a8.509,8.509,0,0,1,2.736-3.849c1.407-1.114,3.134-1.756,4.59-2.8s2.687-2.759,2.343-4.516-2.974-2.808-4.029-1.358c-.1-2.7,4.644-3.489,4.707-6.192.051-2.195-2.856-2.953-4.494-4.42.193-.785.9-1.364,1.112-2.143.454-1.635-1.363-2.973-2.979-3.5s-3.57-1.015-4.154-2.607c-.6-1.629.6-3.716-.488-5.069a1.927,1.927,0,0,0-2.591-.295c-1.628-2.915-7.135.158-9.2-2.469a1.2,1.2,0,0,1-.3-.72,1.287,1.287,0,0,1,.218-.641,13.531,13.531,0,0,1,2.3-2.286,2.624,2.624,0,0,0,.822-2.919c-.516-.954-2.424-.671-2.262.4a2.394,2.394,0,0,0-3.508,1.381,2.591,2.591,0,0,0-3.248.127,7.523,7.523,0,0,0-1.951,2.905" transform="translate(45.767 24.358)" fill="#263238"></path><path d="M215.482,135.367c.487-4.532,3.378-8.469,6.7-11.6a11.7,11.7,0,0,1,4.793-3.057,4.917,4.917,0,0,1,5.2,1.478l.077,3.2c.938,4.991-2.51,9.64-3.866,14.536-.59,2.13-.987,4.655-2.917,5.741a4.772,4.772,0,0,1-3.39.33c-4.453-1.024-7.085-6.092-6.6-10.624" transform="translate(52.634 29.444)" fill="#ecb82f"></path><path d="M217.593,159.967a10.162,10.162,0,0,1-.285-13.058c-2.073-2.159-1.735-5.812-.055-8.291s4.365-4.058,6.962-5.556c.864-6.951,8.1-12.45,15.049-11.435,3.067-5.517,10.541-7.024,16.75-5.822a16.176,16.176,0,0,0,4.58.565,26.362,26.362,0,0,0,3.307-.769c6.077-1.39,12.579,2.368,15.5,7.855a11.368,11.368,0,0,0,1.549,2.536,15.449,15.449,0,0,0,3.263,2.143,9.827,9.827,0,0,1,4.426,6.9c.319,2.372-.21,4.97.994,7.04.6,1.038,1.594,1.829,2.09,2.923,1.437,3.168-1.9,6.846-.91,10.182.2.681.574,1.3.829,1.96a6.052,6.052,0,0,1,.017,4.258c-.393,1.049-1.092,2.041-1.056,3.161a9.863,9.863,0,0,0,.724,2.433c.6,1.99-3.072,10.212-4.728,11.476l-52.487,5.288a9.831,9.831,0,0,1-8.367-7.729,3.594,3.594,0,0,0-.667-1.88,4.2,4.2,0,0,0-1.519-.8c-3.548-1.5-4.38-6.092-4.373-9.936a4.666,4.666,0,0,0-.175-1.6,5.873,5.873,0,0,0-1.42-1.849" transform="translate(52.548 28.173)" fill="#263238"></path><path d="M228.861,156.172c-1.005-9.253,3.85-20.438,12.671-25.817,5.558-3.391,10.1-3.826,13.126-4.463a21.411,21.411,0,0,1,12.626,1.453c2.958.412,14.455,9.123,15.968,19.583,1.681,11.62,3.274,25.872,2.589,34.7-1.376,17.749-14.668,21.07-14.668,21.07,0-.026,1.793,13.251,1.793,13.251l-18.5,11.028-19.624-8.285Z" transform="translate(55.885 30.662)" fill="#cc675d"></path><path d="M253.883,171.385a3.442,3.442,0,0,1,.9-2.268,3.543,3.543,0,0,1,4.214-.821c1.409.711,1.778,2.191,1.766,3.913-.587,1.088-.987,2.141-2.2,2.414a5.21,5.21,0,0,1-.571.1,3.861,3.861,0,0,1-2.719-.667,3.427,3.427,0,0,1-1.392-2.667" transform="translate(62.03 41.029)" fill="#9c4741"></path><path d="M263.574,154.453c.238-.33,2.107.689,4.518.352,2.411-.3,4.012-1.782,4.314-1.523.147.113-.065.677-.759,1.343a6.223,6.223,0,0,1-3.4,1.579,5.97,5.97,0,0,1-3.645-.643c-.819-.465-1.142-.958-1.024-1.107" transform="translate(64.392 37.443)" fill="#263238"></path><path d="M260.478,168.6c-.022-.136,1.465-.518,3.882-1.028.615-.114,1.191-.284,1.262-.714a3.142,3.142,0,0,0-.561-1.8q-1.055-2.173-2.212-4.554c-3.083-6.489-5.371-11.845-5.107-11.967s2.978,5.04,6.062,11.527q1.116,2.4,2.137,4.588a3.577,3.577,0,0,1,.516,2.4,1.557,1.557,0,0,1-.946.986,4.246,4.246,0,0,1-1.04.231c-2.448.331-3.973.465-3.993.328" transform="translate(62.968 36.291)" fill="#263238"></path><path d="M267.6,188.391a45.151,45.151,0,0,1-24.125-4.343s7.264,11.843,24.724,8.779Z" transform="translate(59.488 44.968)" fill="#9c4741"></path><path d="M271.8,144.471c-.36.623-2.25.38-4.4.735-2.166.286-3.908,1.07-4.429.577-.233-.243-.042-.837.662-1.492a6.939,6.939,0,0,1,7.118-1.058c.859.422,1.208.937,1.054,1.237" transform="translate(64.227 34.862)" fill="#263238"></path><path d="M253.3,155.4c-.315-.258-1.862,1.206-4.278,1.5-2.409.324-4.334-.7-4.559-.371-.113.147.235.638,1.075,1.1a6.216,6.216,0,0,0,3.694.658,5.973,5.973,0,0,0,3.361-1.555c.673-.66.86-1.217.707-1.331" transform="translate(59.724 37.961)" fill="#263238"></path><path d="M242.633,147.607c.541.49,2.338-.3,4.577-.591,2.23-.363,4.185-.124,4.554-.748.158-.3-.205-.814-1.1-1.233a6.967,6.967,0,0,0-3.831-.454,6.9,6.9,0,0,0-3.525,1.533c-.725.657-.918,1.251-.677,1.493" transform="translate(59.258 35.305)" fill="#263238"></path><path d="M234.96,164.173c-.108-1.305-1.87-4.259-3.179-4.355-3.5-.256-9.695.524-9.047,9.268.886,11.954,12.742,8.593,12.737,8.249,0-.269-.136-8.657-.51-13.161" transform="translate(54.408 39.038)" fill="#cc675d"></path><path d="M231.162,172.4c-.056-.035-.2.162-.539.348a2.1,2.1,0,0,1-1.559.148c-1.3-.368-2.516-2.295-2.734-4.445a6.86,6.86,0,0,1,.363-3.025,2.41,2.41,0,0,1,1.453-1.715,1.066,1.066,0,0,1,1.274.478c.187.322.127.567.193.582.035.029.243-.219.109-.7a1.328,1.328,0,0,0-.529-.715,1.584,1.584,0,0,0-1.177-.218,2.941,2.941,0,0,0-2.044,2.016,7.062,7.062,0,0,0-.477,3.386c.254,2.4,1.659,4.564,3.429,4.935a2.25,2.25,0,0,0,1.886-.458c.35-.322.393-.595.35-.613" transform="translate(55.086 39.851)" fill="#9c4741"></path><path d="M287.371,147.93c-2.543-1.31-4.256-3.238-4.338-6.092-1.567.607-3.363-1.32-4.412-2.628s-2.254-1.914-2.318-3.589a1.873,1.873,0,0,0-.2-.959,2.042,2.042,0,0,0-1.37-.656,8.036,8.036,0,0,1-5.74-5.129,17.086,17.086,0,0,1-8.1,2.022,6.522,6.522,0,0,1-11.022.421,5.836,5.836,0,0,1-3.661,3.179,17.354,17.354,0,0,1-4.949.677,6.872,6.872,0,0,1-3.892,8.128c-.414.165-.9.335-1.061.75-.17.432.093.9.294,1.316a5.411,5.411,0,0,1-3.064,7.162,4.027,4.027,0,0,1,.148,6.33c-.413.3-.957.661-.849,1.157a1.129,1.129,0,0,0,.3.488,7.848,7.848,0,0,1,2.211,3.794c.228,1.466-.637,3.2-2.114,3.39a3.83,3.83,0,0,1,1.736,2.492c.1,1.037-1.728,3.35-2.73,3.054-.426-.124-5.918-2.309-5.918-2.309-3.764-4.312.088-9.731-.04-15.447a37.1,37.1,0,0,1,3.865-16.562,27.194,27.194,0,0,1,3.786-6.1,36.323,36.323,0,0,1,6.2-5.376c2.876-2.125,5.836-4.254,9.24-5.354,6.344-2.048,13.253-.256,19.511,2.029a28.247,28.247,0,0,1,6.821,3.295,25.484,25.484,0,0,1,6.066,6.692,31.708,31.708,0,0,1,5.334,11.875" transform="translate(54.893 29.609)" fill="#263238"></path><path d="M291.75,145.026A4.565,4.565,0,0,0,291,143.8c-.286-.377-.683-.81-1.071-1.375a5.568,5.568,0,0,1-.855-2.175,17.318,17.318,0,0,1-.193-2.96,13.068,13.068,0,0,0-.387-3.539,9.96,9.96,0,0,0-1.886-3.632,9.848,9.848,0,0,0-1.613-1.569,14.683,14.683,0,0,0-2.01-1.247,7.439,7.439,0,0,1-1.95-1.415,9.641,9.641,0,0,1-1.32-2.154,16.109,16.109,0,0,0-8.23-7.553,14.364,14.364,0,0,0-2.974-.841,12.967,12.967,0,0,0-3.179-.093,14.823,14.823,0,0,0-1.6.261c-.53.128-1.049.284-1.57.422a7.768,7.768,0,0,1-3.2.27c-1.09-.122-2.173-.421-3.3-.6a21.143,21.143,0,0,0-6.96-.056,18.242,18.242,0,0,0-3.462.938,11.86,11.86,0,0,0-5.7,4.468l-.4.626.184-.092a13.508,13.508,0,0,0-10.144,2.937,13.343,13.343,0,0,0-5.1,8.657l.085-.127a38.158,38.158,0,0,0-4.017,2.56,12.677,12.677,0,0,0-3.176,3.344,8.215,8.215,0,0,0-1.217,4.253,5.646,5.646,0,0,0,1.481,3.942l-.006-.2a9.912,9.912,0,0,0-2.25,6.362,10.142,10.142,0,0,0,1.74,5.832,9.757,9.757,0,0,0,.895,1.116,13.163,13.163,0,0,1,.913,1,2.557,2.557,0,0,1,.524,1.135,7.288,7.288,0,0,1,.068,1.243,19.561,19.561,0,0,0,.505,4.523,9.488,9.488,0,0,0,1.466,3.352,5.884,5.884,0,0,0,2.025,1.783c.652.356,1.212.468,1.534.663a2.75,2.75,0,0,1,.467.325,1.389,1.389,0,0,0-.443-.365c-.322-.213-.885-.342-1.516-.7a5.871,5.871,0,0,1-1.959-1.781,9.42,9.42,0,0,1-1.406-3.315,19.662,19.662,0,0,1-.463-4.483,7.39,7.39,0,0,0-.063-1.282,2.789,2.789,0,0,0-.557-1.233,12.832,12.832,0,0,0-.923-1.022,9.731,9.731,0,0,1-.865-1.093,9.906,9.906,0,0,1-1.666-5.693,9.646,9.646,0,0,1,2.2-6.171l.088-.1-.093-.1a5.344,5.344,0,0,1-1.384-3.737,7.894,7.894,0,0,1,1.181-4.081,12.314,12.314,0,0,1,3.1-3.246,37.81,37.81,0,0,1,3.986-2.53l.075-.042.01-.086a13.009,13.009,0,0,1,4.982-8.419,13.161,13.161,0,0,1,9.87-2.858l.117.016.068-.108.382-.6a11.506,11.506,0,0,1,5.531-4.333,18.061,18.061,0,0,1,3.387-.92,20.89,20.89,0,0,1,6.843.049c1.109.178,2.2.477,3.325.6a8.349,8.349,0,0,0,1.691.034,9.976,9.976,0,0,0,1.638-.317c.529-.142,1.045-.3,1.562-.423a14.363,14.363,0,0,1,1.558-.258,12.647,12.647,0,0,1,3.093.083,14.1,14.1,0,0,1,2.907.815,15.827,15.827,0,0,1,8.1,7.386,9.992,9.992,0,0,0,1.373,2.206,7.668,7.668,0,0,0,2.023,1.458,14.643,14.643,0,0,1,1.986,1.216,9.585,9.585,0,0,1,1.583,1.522,9.775,9.775,0,0,1,1.87,3.541,13.076,13.076,0,0,1,.409,3.488,17.277,17.277,0,0,0,.225,2.983,5.643,5.643,0,0,0,.906,2.21c.4.567.809.992,1.1,1.359a7.043,7.043,0,0,1,.625.867c.126.207.175.32.184.316" transform="translate(52.523 28.142)" fill="#455a64"></path><path d="M238.858,118.285c.021.025.3-.208.86-.541a8.11,8.11,0,0,1,2.548-.978,7.616,7.616,0,0,1,3.987.243,7.828,7.828,0,0,1,3.854,2.935,6.591,6.591,0,0,1,.709,1.3,1.5,1.5,0,0,1,.017,1.265l-.259.431.473-.177a4.992,4.992,0,0,1,3.742.129,4.789,4.789,0,0,1,2.216,2.041,5.22,5.22,0,0,1,.632,1.927c.057.478.041.744.068.745.011,0,.024-.065.039-.193a3.242,3.242,0,0,0,.015-.562,5,5,0,0,0-2.842-4.234,5.252,5.252,0,0,0-3.994-.182l.214.254a1.825,1.825,0,0,0,.016-1.569,6.865,6.865,0,0,0-.747-1.381,8.038,8.038,0,0,0-4.047-3.047,7.708,7.708,0,0,0-4.147-.177,7.578,7.578,0,0,0-2.571,1.11,5.355,5.355,0,0,0-.6.467c-.128.118-.192.183-.183.193" transform="translate(58.359 28.418)" fill="#455a64"></path><path d="M224.156,130.229c-.012.017.142.163.454.392a7.717,7.717,0,0,0,1.435.825,5.771,5.771,0,0,0,2.449.515,4.315,4.315,0,0,0,2.9-1.146l-.269-.019.392.46c.142.149.3.29.448.437a7.271,7.271,0,0,0,3.149,1.605,7.466,7.466,0,0,0,2.884.118,6.607,6.607,0,0,0,1.853-.587,2.4,2.4,0,0,0,.6-.384,10.454,10.454,0,0,1-2.485.719,7.621,7.621,0,0,1-2.77-.188,7.175,7.175,0,0,1-2.988-1.553c-.142-.139-.29-.271-.424-.412s-.25-.292-.372-.433l-.132-.153-.137.134a4.052,4.052,0,0,1-2.659,1.083,5.8,5.8,0,0,1-2.347-.417c-1.274-.514-1.945-1.051-1.98-1" transform="translate(54.767 31.817)" fill="#455a64"></path><path d="M219.812,139.917c-.012,0,0,.077.047.218a2.069,2.069,0,0,0,.315.555,3.208,3.208,0,0,0,2.038,1.117,6.123,6.123,0,0,0,3.391-.657,19.356,19.356,0,0,0,1.829-.9,3.284,3.284,0,0,0,1.529-1.641c.02-.068.04-.137.058-.2l-.275.109a13.773,13.773,0,0,0,3.732,1.829,6.208,6.208,0,0,0,3.393.065,4.472,4.472,0,0,0,1.995-1.114,2.713,2.713,0,0,0,.4-.479c.076-.119.111-.184.1-.192-.027-.02-.2.225-.592.569a4.672,4.672,0,0,1-1.964.971,6.129,6.129,0,0,1-3.238-.137,14.138,14.138,0,0,1-3.626-1.814l-.2-.133-.072.243c-.015.052-.032.108-.049.166a2.972,2.972,0,0,1-1.37,1.455c-.585.348-1.206.631-1.782.9a6.065,6.065,0,0,1-3.219.708,3.191,3.191,0,0,1-1.966-.956,5.318,5.318,0,0,1-.47-.682" transform="translate(53.705 33.737)" fill="#455a64"></path><path d="M206.639,106.152c0,.025.208-.009.577.054a2.734,2.734,0,0,1,1.407.749,3.724,3.724,0,0,1,1.093,2.206,10.906,10.906,0,0,1-.177,3.295l-.03.2.2-.022a6.856,6.856,0,0,1,4.248.916,5.3,5.3,0,0,1,2.619,3.993,4.91,4.91,0,0,1-1.411,4.125l-.377.348.513-.047a6.216,6.216,0,0,1,4.709,1.611,5.918,5.918,0,0,1,1.837,3.539,6.429,6.429,0,0,1-.183,2.672c-.178.607-.341.917-.315.93.01,0,.056-.068.136-.217a4.207,4.207,0,0,0,.292-.677,6.156,6.156,0,0,0,.29-2.736,6.078,6.078,0,0,0-1.852-3.729,6.48,6.48,0,0,0-4.947-1.74l.136.3a5.237,5.237,0,0,0,1.534-4.421,5.371,5.371,0,0,0-.923-2.514,6.044,6.044,0,0,0-1.878-1.736,7.1,7.1,0,0,0-4.465-.921l.169.172a10.857,10.857,0,0,0,.119-3.378,3.872,3.872,0,0,0-1.218-2.3,2.718,2.718,0,0,0-1.513-.712,1.781,1.781,0,0,0-.443,0c-.1.015-.149.026-.148.034" transform="translate(50.487 25.924)" fill="#455a64"></path><path d="M191.188,129.166c0,.009.065.042.2.1a6.476,6.476,0,0,0,.621.224,8.563,8.563,0,0,0,2.459.345,9.553,9.553,0,0,0,3.727-.765,9.111,9.111,0,0,0,3.821-2.974h-.274a7.654,7.654,0,0,0,5.7,3.236,5.81,5.81,0,0,0,5.7-3.662l-.312.014a4.81,4.81,0,0,0,1.611,1.908,6.408,6.408,0,0,0,2.057.944,8.859,8.859,0,0,0,3.679.077,17.479,17.479,0,0,0,2.322-.576,4.514,4.514,0,0,0,.8-.292,5.715,5.715,0,0,0-.832.188,22.317,22.317,0,0,1-2.323.479,8.866,8.866,0,0,1-3.575-.147,5.2,5.2,0,0,1-3.434-2.716l-.175-.389-.137.4a5.489,5.489,0,0,1-5.372,3.409,7.361,7.361,0,0,1-5.441-3.072l-.137-.187-.138.188a8.907,8.907,0,0,1-3.66,2.909,9.556,9.556,0,0,1-3.617.819,11.17,11.17,0,0,1-3.28-.459" transform="translate(46.712 30.579)" fill="#455a64"></path><path d="M202.455,143.959c-.007,0,.026.092.158.205a1.245,1.245,0,0,0,.7.245,5.575,5.575,0,0,0,2.611-.66,6.531,6.531,0,0,0,2.837-2.794,6.646,6.646,0,0,0,.488-4.824l-.009-.036-.243.218a7.838,7.838,0,0,0,4.857.26,8.727,8.727,0,0,0,3.51-1.87,9.7,9.7,0,0,0,1.763-2.011,3.51,3.51,0,0,0,.467-.86,14.4,14.4,0,0,1-2.4,2.677,8.72,8.72,0,0,1-3.427,1.742,7.637,7.637,0,0,1-4.638-.273l-.335-.134.092.353.009.034a6.3,6.3,0,0,1-3.1,7.292,5.843,5.843,0,0,1-2.485.745,1.235,1.235,0,0,1-.869-.31" transform="translate(49.465 32.21)" fill="#455a64"></path><path d="M229.185,104.734a10.168,10.168,0,0,1,.847,3.623,8.238,8.238,0,0,1-6.907,8.318l-.22.036.083.2a10.491,10.491,0,0,1,.759,3.821,10.735,10.735,0,0,1-.431,3.087,7.809,7.809,0,0,1-.4,1.107.905.905,0,0,1-.594.539.6.6,0,0,1-.493-.106c-.092-.078-.113-.146-.127-.141s-.007.078.082.185a.644.644,0,0,0,.556.182,1.02,1.02,0,0,0,.73-.575,7.091,7.091,0,0,0,.463-1.125,10.39,10.39,0,0,0,.52-3.154,10.5,10.5,0,0,0-.738-3.953l-.137.24a8.436,8.436,0,0,0,2.8-.967,8.524,8.524,0,0,0,3.5-3.655,8.381,8.381,0,0,0,.806-4.055,8.126,8.126,0,0,0-.612-2.719,6.02,6.02,0,0,0-.341-.677c-.088-.149-.139-.224-.151-.218" transform="translate(54.167 25.589)" fill="#455a64"></path><path d="M254.692,167.618c.333-.092.825,2.165,3.111,3.351s4.64.419,4.726.732c.063.134-.443.554-1.456.8a5.786,5.786,0,0,1-3.92-.483,5,5,0,0,1-2.461-2.841c-.291-.925-.159-1.539,0-1.559" transform="translate(62.186 40.953)" fill="#263238"></path><path d="M287.436,163.606l-48.459,4.583a8.29,8.29,0,0,1-9.033-7.472l-.9-9.57a8.29,8.29,0,0,1,7.472-9.033l48.458-4.582A8.288,8.288,0,0,1,294,145l.906,9.57a8.289,8.289,0,0,1-7.472,9.033" transform="translate(55.951 33.594)" fill="#e0e0e0"></path><path d="M224.751,165s-1.426-1.732.983-7.2c2.858-6.485,5.4-12.412,5.4-12.412l6.559,20.627-5.585-2.728Z" transform="translate(54.81 35.524)" fill="#e0e0e0"></path><path d="M288.583,161.887l-48.459,4.583A8.29,8.29,0,0,1,231.091,159l-.9-9.57a8.29,8.29,0,0,1,7.472-9.033l48.459-4.582a8.288,8.288,0,0,1,9.031,7.472l.906,9.569a8.289,8.289,0,0,1-7.472,9.033" transform="translate(56.231 33.174)" fill="#455a64"></path><path d="M288.643,161.937c-.006-.045.592-.068,1.659-.4a8.416,8.416,0,0,0,3.921-2.744,8.233,8.233,0,0,0,1.518-3.112,8.389,8.389,0,0,0,.241-1.971c-.019-.684-.1-1.415-.178-2.169q-.226-2.264-.482-4.83-.127-1.282-.261-2.637a9.751,9.751,0,0,0-.524-2.675,8.022,8.022,0,0,0-6.619-5.255,15.1,15.1,0,0,0-3.24.128l-14.255,1.379-32.67,3.115a8,8,0,0,0-6.468,4.567,7.88,7.88,0,0,0-.727,3.943q.19,2.081.378,4.129t.381,4.063a12.6,12.6,0,0,0,.7,3.828,8.02,8.02,0,0,0,5.434,4.712,9.273,9.273,0,0,0,3.607.134l3.621-.335,6.923-.638,12.427-1.136,18-1.6,4.9-.4,1.274-.088a2.155,2.155,0,0,1,.437-.007,2.138,2.138,0,0,1-.431.073l-1.269.153-4.885.523-17.979,1.8L251.658,165.7l-6.92.671-3.618.35a9.916,9.916,0,0,1-3.809-.136,8.626,8.626,0,0,1-5.861-5.057,13.142,13.142,0,0,1-.758-4q-.19-2.012-.387-4.061t-.386-4.141a8.52,8.52,0,0,1,.783-4.264,8.639,8.639,0,0,1,6.991-4.937l32.674-3.065,14.262-1.318a15.379,15.379,0,0,1,3.351-.109,8.5,8.5,0,0,1,6.989,5.616,10.236,10.236,0,0,1,.526,2.789q.121,1.355.238,2.639.228,2.565.432,4.835c.067.754.142,1.478.153,2.2a8.584,8.584,0,0,1-.279,2.046,8.331,8.331,0,0,1-5.7,5.9,6.436,6.436,0,0,1-1.7.274" transform="translate(56.171 33.123)" fill="#263238"></path><path d="M245.987,156.8c-.138-.113,2.4-3.456,5.679-7.463s6.044-7.167,6.182-7.054-2.4,3.454-5.68,7.463-6.042,7.167-6.181,7.054" transform="translate(60.1 34.762)" fill="#263238"></path><path d="M249.432,158.536c-.139-.112,2.939-4.176,6.875-9.076s7.241-8.782,7.381-8.67-2.939,4.175-6.876,9.076-7.241,8.782-7.38,8.67" transform="translate(60.942 34.398)" fill="#263238"></path><path d="M256.666,155.859c-.147-.1,1.414-2.579,3.483-5.532s3.869-5.264,4.014-5.161-1.412,2.58-3.483,5.534-3.867,5.262-4.014,5.16" transform="translate(62.708 35.467)" fill="#263238"></path><path d="M359.979,162.784c-.745,8.67-5.088,19.924-5.088,19.924L335.5,185.126S326.379,169.7,323.871,163.6A11.468,11.468,0,0,0,321,159.3a2.958,2.958,0,0,1,3.22-4.878A18.071,18.071,0,0,1,328,158.309a58.25,58.25,0,0,1,3.638,6.089,13.794,13.794,0,0,0,2.029-6.222c.114-3.567-1.815-17.071-1.9-20.8s2.123-4.107,4.181-3.392,1.737,16.588,3.59,17.233c0,0,3.157-1.446,4.991-.648a9.938,9.938,0,0,1,3.137,2.3s1.878-2.132,3.794-1.682,3.423,2.731,3.423,2.731,1.731-1.983,3.064-1.395,2.6,3.739,2.038,10.259" transform="translate(78.185 32.665)" fill="#cc675d"></path><path d="M331.605,173.788c-.264.886,5.744,13.106.031,30.083-1.2,3.572-1.094,4.052-1.094,4.052L344.57,213.7l9.589-5.028-2.231-36.316Z" transform="translate(80.76 42.111)" fill="#cc675d"></path><path d="M347.6,168.983c-.106.032-.462-1.272-1.345-3.222a13.045,13.045,0,0,0-1.987-3.129,8.586,8.586,0,0,0-3.708-2.443,16.054,16.054,0,0,0-8.2-.159,2.485,2.485,0,0,1-1.555-.068,2.152,2.152,0,0,1-.864-.8c-.331-.53-.423-.856-.392-.875s.221.27.595.724a2.028,2.028,0,0,0,.8.612,2.18,2.18,0,0,0,1.317-.046,15.15,15.15,0,0,1,8.507-.006,8.872,8.872,0,0,1,3.948,2.664,12.293,12.293,0,0,1,1.957,3.339,17.553,17.553,0,0,1,.783,2.465,2.534,2.534,0,0,1,.142.939" transform="translate(80.517 38.674)" fill="#9c4741"></path><path d="M343.29,149.528a2.684,2.684,0,0,1,.239.99,12.822,12.822,0,0,1,.06,2.774,14.279,14.279,0,0,1-.931,4.025,6.408,6.408,0,0,1-1.268,2.164,2.459,2.459,0,0,1-2.68.719,3.583,3.583,0,0,1-1.934-1.967,13.619,13.619,0,0,1-.755-2.343,17.476,17.476,0,0,1-.479-4.093,15.159,15.159,0,0,1,.243-2.759,2.707,2.707,0,0,1,.277-.979c.111.016-.167,1.436-.062,3.728a19.316,19.316,0,0,0,.6,3.958,13.978,13.978,0,0,0,.75,2.217,3,3,0,0,0,1.582,1.63,1.828,1.828,0,0,0,2-.555,5.988,5.988,0,0,0,1.168-1.945,15.29,15.29,0,0,0,1.029-3.85c.291-2.271.042-3.7.157-3.716" transform="translate(81.982 36.175)" fill="#9c4741"></path><path d="M349.2,149.917a3.47,3.47,0,0,1,.168,1.078,27.58,27.58,0,0,1,.111,2.965,14.786,14.786,0,0,1-.693,4.385,6.5,6.5,0,0,1-1.324,2.347,3.622,3.622,0,0,1-2.69,1.214,2.809,2.809,0,0,1-1.508-.432,2.656,2.656,0,0,1-.978-1.175,6.941,6.941,0,0,1-.422-2.655c-.029-1.6-.056-3.069-.078-4.378a24.9,24.9,0,0,1,.092-4.039,24.918,24.918,0,0,1,.366,4.024c.065,1.308.137,2.776.216,4.373a6.678,6.678,0,0,0,.4,2.414,2.019,2.019,0,0,0,1.914,1.219,3.005,3.005,0,0,0,2.222-1,6.033,6.033,0,0,0,1.223-2.108,15.624,15.624,0,0,0,.8-4.21c.133-2.468.068-4.02.179-4.022" transform="translate(83.506 36.46)" fill="#9c4741"></path><path d="M353.582,155.671c.067-.009.2.662-.231,1.628a4.117,4.117,0,0,1-3.178,2.367,2.243,2.243,0,0,1-2.151-.874,3.085,3.085,0,0,1-.557-1.773,2.93,2.93,0,0,1,.287-1.608c.106,0,.063.636.169,1.572a2.893,2.893,0,0,0,.574,1.445,1.682,1.682,0,0,0,1.606.595,4.014,4.014,0,0,0,2.845-1.935c.482-.805.529-1.427.637-1.416" transform="translate(84.895 37.971)" fill="#9c4741"></path><path d="M307.4,262.931l4.175-64.827c-10.921-4.516-32.23-4.723-32.23-4.723s-.386,12.056-17.014,12.787c-18.1.8-20.5-10.449-20.5-10.449l-33.508,7.562a33.184,33.184,0,0,0-9,6.182l9.072,58.664,8.69,42.5L203.5,339.226s37.076,12.331,58.31,13.434S314,330.462,314,330.462l-10.282-22.418Z" transform="translate(48.7 47.248)" fill="#ecb82f"></path><path d="M212.7,205.568l-37.811,30.316-23.042.932s-5.643,34.7-1.975,38.937,6.385,8.3,14.457,8.022,8.609-2.132,20.248-10.562c11.926-8.639,40.836-30.431,40.836-30.431Z" transform="translate(36.314 50.226)" fill="#ecb82f"></path><path d="M287.82,196.853s14.926,2.533,26.264,4.563a188.057,188.057,0,0,0,23.149,2.672v-4.833l30.985-2.6s2.215,35.618-2.9,43.009-79.575,1.762-79.575,1.762Z" transform="translate(69.814 48.049)" fill="#ecb82f"></path><path d="M289.729,208.474c.178.017-.343,6.942-1.163,15.466s-1.631,15.422-1.809,15.4.343-6.941,1.165-15.467,1.63-15.421,1.808-15.4" transform="translate(70.053 50.936)" fill="#263238"></path><path d="M200.748,221.212c.174-.037,1.708,6.434,3.427,14.455s2.971,14.554,2.795,14.592-1.708-6.434-3.428-14.457-2.969-14.554-2.794-14.591" transform="translate(49.044 54.048)" fill="#263238"></path><path d="M334.11,227.538a3.9,3.9,0,0,1-.666-.932c-.4-.62-.921-1.548-1.517-2.723a47.927,47.927,0,0,1-5.033-19.812c-.037-1.316-.022-2.382.032-3.116a3.908,3.908,0,0,1,.139-1.137c.106,0,.1,1.625.285,4.228a57.172,57.172,0,0,0,4.991,19.639c1.076,2.379,1.86,3.8,1.768,3.852" transform="translate(79.864 48.821)" fill="#263238"></path><path d="M171,259.853c-.106-.029.332-1.679.775-4.385a51.866,51.866,0,0,0-.9-21.234c-.672-2.659-1.247-4.266-1.144-4.3a4.337,4.337,0,0,1,.519,1.086,30.925,30.925,0,0,1,1.066,3.1,44.843,44.843,0,0,1,.91,21.436,31.03,31.03,0,0,1-.8,3.177,4.274,4.274,0,0,1-.424,1.126" transform="translate(41.467 56.178)" fill="#263238"></path></g></g></svg>